<?xml version="1.0" encoding="utf-8"?>
<!-- Generator: Adobe Illustrator 23.0.2, SVG Export Plug-In . SVG Version: 6.00 Build 0)  -->
<svg version="1.1" id="图层_1" xmlns="http://www.w3.org/2000/svg" xmlns:xlink="http://www.w3.org/1999/xlink" x="0px" y="0px"
	 viewBox="0 0 1024 1024" style="enable-background:new 0 0 1024 1024;" xml:space="preserve">
<style type="text/css">
	.st0{display:none;fill:#BEBEBE;}
	.st1{fill:#BEBEBE;}
</style>
<path class="st0" d="M630.63,531.43c13.71,0,24.83,11.12,24.83,24.83c0,13.71-11.12,24.83-24.83,24.83
	c-13.71,0-24.83-11.12-24.83-24.83C605.8,542.55,616.91,531.43,630.63,531.43z M398.91,531.43c13.71,0,24.83,11.12,24.83,24.83
	c0,13.71-11.12,24.83-24.83,24.83c-13.71,0-24.83-11.12-24.83-24.83C374.08,542.55,385.2,531.43,398.91,531.43z M895.45,498.33
	v148.5h-33.1v-148.5H895.45z M162.22,502.11v148.5h-33.1v-148.5H162.22z M752.47,415.57H274.77c-27.42,0-49.65,22.23-49.65,49.65
	v198.62c0,27.42,22.23,49.65,49.65,49.65h477.69c27.42,0,49.65-22.23,49.65-49.65V465.23C802.12,437.81,779.89,415.57,752.47,415.57
	z M509.8,233.51c20.11,0,36.41,16.3,36.41,36.41c0,15.44-9.61,28.63-23.17,33.93l-0.04,78.62h229.46
	c43.88,0,79.78,34.15,82.58,77.32l0.18,5.44v198.62c0,45.71-37.05,82.76-82.76,82.76H274.77c-45.71,0-82.76-37.05-82.76-82.76
	V465.23c0-45.71,37.05-82.76,82.76-82.76h215.13l-0.01-82.05c-8.9-5.82-15.09-15.43-16.3-26.53l-0.21-3.97
	C473.39,249.81,489.69,233.51,509.8,233.51z"/>
<path class="st1" d="M737.8,218.27l-121.47-0.03l55.56,154.17h157.92L737.8,218.27z M570.01,218.24H462.99l-55.56,154.17h218.1
	L570.01,218.24z M416.63,218.24l-126.9,0.03l-91.21,154.14h162.58L416.63,218.24z M819.82,416.02H671.19l-73.66,258.79
	L819.82,416.02z M360.02,416.02H208.47l227.26,266.08L360.02,416.02z M625.83,416.02h-220.5l97.48,342.45l-1.49,0.43l11.96,14.03
	l16.43-19.18L625.83,416.02z M762.57,174.67l132.03,221.29l-381.4,444.03L133.98,395.96l130.95-221.29H762.57z"/>
</svg>
