<?xml version="1.0" encoding="utf-8"?>
<!-- Generator: Adobe Illustrator 23.0.2, SVG Export Plug-In . SVG Version: 6.00 Build 0)  -->
<svg version="1.1" id="图层_1" xmlns="http://www.w3.org/2000/svg" xmlns:xlink="http://www.w3.org/1999/xlink" x="0px" y="0px"
	 viewBox="0 0 1024 1024" style="enable-background:new 0 0 1024 1024;" xml:space="preserve">
<style type="text/css">
	.st0{display:none;fill:#BEBEBE;}
	.st1{display:none;}
	.st2{display:inline;fill:#163070;}
	.st3{display:inline;fill-rule:evenodd;clip-rule:evenodd;fill:#EBB682;}
	.st4{fill:#163070;}
	.st5{fill:#EBB682;}
</style>
<path class="st0" d="M630.63,531.43c13.71,0,24.83,11.12,24.83,24.83c0,13.71-11.12,24.83-24.83,24.83
	c-13.71,0-24.83-11.12-24.83-24.83C605.8,542.55,616.91,531.43,630.63,531.43z M398.91,531.43c13.71,0,24.83,11.12,24.83,24.83
	c0,13.71-11.12,24.83-24.83,24.83c-13.71,0-24.83-11.12-24.83-24.83C374.08,542.55,385.2,531.43,398.91,531.43z M895.45,498.33
	v148.5h-33.1v-148.5H895.45z M162.22,502.11v148.5h-33.1v-148.5H162.22z M752.47,415.57H274.77c-27.42,0-49.65,22.23-49.65,49.65
	v198.62c0,27.42,22.23,49.65,49.65,49.65h477.69c27.42,0,49.65-22.23,49.65-49.65V465.23C802.12,437.81,779.89,415.57,752.47,415.57
	z M509.8,233.51c20.11,0,36.41,16.3,36.41,36.41c0,15.44-9.61,28.63-23.17,33.93l-0.04,78.62h229.46
	c43.88,0,79.78,34.15,82.58,77.32l0.18,5.44v198.62c0,45.71-37.05,82.76-82.76,82.76H274.77c-45.71,0-82.76-37.05-82.76-82.76
	V465.23c0-45.71,37.05-82.76,82.76-82.76h215.13l-0.01-82.05c-8.9-5.82-15.09-15.43-16.3-26.53l-0.21-3.97
	C473.39,249.81,489.69,233.51,509.8,233.51z"/>
<path class="st0" d="M737.8,218.27l-121.47-0.03l55.56,154.17h157.92L737.8,218.27z M570.01,218.24H462.99l-55.56,154.17h218.1
	L570.01,218.24z M416.63,218.24l-126.9,0.03l-91.21,154.14h162.58L416.63,218.24z M819.82,416.02H671.19l-73.66,258.79
	L819.82,416.02z M360.02,416.02H208.47l227.26,266.08L360.02,416.02z M625.83,416.02h-220.5l97.48,342.45l-1.49,0.43l11.96,14.03
	l16.43-19.18L625.83,416.02z M762.57,174.67l132.03,221.29l-381.4,444.03L133.98,395.96l130.95-221.29H762.57z"/>
<path class="st0" d="M597.16,599.08h-151.5l0.31,4.09c4.85,52.96,27.17,77.67,69.3,79.81l6.15,0.15c46.11,0,70.37-24.48,75.45-79.77
	L597.16,599.08z M609.33,560.7c14.82,0.02,26.83,12.04,26.83,27.12l-0.38,9.21c-4.66,80.44-43.83,124.48-114.36,124.48
	c-73.06,0-112.46-47.24-114.73-133.24c-0.39-14.83,11.31-27.18,26.66-27.58L609.33,560.7z M649.08,164.67H376.92
	c-103.2,0-187.38,81.46-191.73,183.59l-0.18,8.32v307.06c0,103.2,81.46,187.38,183.59,191.73l8.32,0.18h272.17
	c103.2,0,187.38-81.46,191.73-183.59l0.18-8.32V356.58c0-103.2-81.46-187.38-183.59-191.73L649.08,164.67z M649.08,126.28
	c127.19,0,230.29,103.11,230.29,230.29v307.06c0,127.19-103.11,230.29-230.29,230.29H376.92c-127.19,0-230.29-103.11-230.29-230.29
	V356.58c0-127.19,103.11-230.29,230.29-230.29H649.08z"/>
<g class="st1">
	<path class="st2" d="M893.24,532.42v151.6h-33.79v-151.6H893.24z M161.7,536.27v151.6h-33.79v-151.6H161.7z M499.55,262.07
		c20.53,0,37.17,16.64,37.17,37.17c0,15.75-9.8,29.22-23.63,34.63l-0.04,97.16h234.23c35.63,0,64.82,27.57,67.4,62.54l0.19,5.04
		v202.76c0,37.33-30.26,67.59-67.59,67.59H259.62c-37.33,0-67.59-30.26-67.59-67.59V498.63c0-37.33,30.26-67.59,67.59-67.59h219.64
		l-0.01-100.65c-9.09-5.94-15.42-15.75-16.65-27.09l-0.22-4.05C462.38,278.72,479.02,262.07,499.55,262.07z"/>
	<circle class="st3" cx="394.79" cy="600.01" r="33.79"/>
	
		<ellipse transform="matrix(0.9871 -0.1602 0.1602 0.9871 -87.9581 108.8778)" class="st3" cx="631.34" cy="600.01" rx="33.79" ry="33.79"/>
</g>
<g>
	<path class="st4" d="M898.69,417.19H708.11L581.05,841.16L898.69,417.19z M454,841.16L326.55,417.19H136.36L454,841.16z
		 M739.87,156.28l158.82,195.68H708.11L581.05,156.28H739.87z M644.58,417.19L518.07,873.77c-0.3-0.03-0.59-0.07-0.89-0.12
		L390.47,417.19H644.58z M295.18,156.28L136.36,351.96h190.58L454,156.28H295.18z"/>
	<polygon class="st5" points="390.47,351.96 644.58,351.96 517.53,156.28 	"/>
</g>
</svg>
