<?xml version="1.0" encoding="utf-8"?>
<!-- Generator: Adobe Illustrator 23.0.2, SVG Export Plug-In . SVG Version: 6.00 Build 0)  -->
<svg version="1.1" id="图层_1" xmlns="http://www.w3.org/2000/svg" xmlns:xlink="http://www.w3.org/1999/xlink" x="0px" y="0px"
	 viewBox="0 0 1024 1024" style="enable-background:new 0 0 1024 1024;" xml:space="preserve">
<style type="text/css">
	.st0{display:none;}
	.st1{display:inline;fill-rule:evenodd;clip-rule:evenodd;fill:#F0F0F0;}
	.st2{display:inline;fill-rule:evenodd;clip-rule:evenodd;fill:#FFFFFF;}
	.st3{display:inline;fill:#E0E0E0;}
	.st4{display:inline;fill-rule:evenodd;clip-rule:evenodd;fill:#CCCCCC;}
	.st5{display:none;fill:#A3A3A3;}
	.st6{display:none;fill:#163070;}
	.st7{fill:#A3A3A3;}
</style>
<g class="st0">
	<circle class="st1" cx="510.37" cy="513.39" r="382.35"/>
	<circle class="st2" cx="512" cy="515.01" r="136.67"/>
	<path class="st3" d="M512,381.6c-73.68,0-133.42,59.73-133.42,133.42c0,73.68,59.73,133.42,133.42,133.42
		c73.68,0,133.42-59.73,133.42-133.42C645.41,441.33,585.68,381.6,512,381.6z M512,378.34c75.48,0,136.67,61.19,136.67,136.67
		c0,75.48-61.19,136.67-136.67,136.67s-136.67-61.19-136.67-136.67C375.33,439.53,436.52,378.34,512,378.34z"/>
	<path class="st4" d="M512,244.93c5.39,0,9.76,4.37,9.76,9.76s-4.37,9.76-9.76,9.76c-5.39,0-9.76-4.37-9.76-9.76
		S506.61,244.93,512,244.93z M251.68,505.25c5.39,0,9.76,4.37,9.76,9.76s-4.37,9.76-9.76,9.76c-5.39,0-9.76-4.37-9.76-9.76
		S246.29,505.25,251.68,505.25z M772.32,505.25c5.39,0,9.76,4.37,9.76,9.76s-4.37,9.76-9.76,9.76c-5.39,0-9.76-4.37-9.76-9.76
		S766.93,505.25,772.32,505.25z M512,762.32c5.39,0,9.76,4.37,9.76,9.76s-4.37,9.76-9.76,9.76c-5.39,0-9.76-4.37-9.76-9.76
		S506.61,762.32,512,762.32z"/>
</g>
<path class="st5" d="M867.23,491.94c13.42,0,24.31,10.88,24.31,24.31c0,13.42-10.88,24.31-24.31,24.31H656.57
	c-13.42,0-24.31-10.88-24.31-24.31c0-13.42,10.88-24.31,24.31-24.31H867.23z M491.75,297.81l-0.69,466.54L345.31,649.6
	c-8.27-6.54-18.61-9.99-28.94-9.99H193.01l0.69-203.65l120.94-0.34c11.37,0,22.05-4.15,30.67-11.37L491.75,297.81z M506.91,232.68
	c-6.89,0-14.13,2.41-19.99,7.24L314.64,388.77H193.7c-26.19,0-47.21,21.02-47.21,46.87l-0.34,203.98c0,25.84,21.37,47.2,47.55,47.2
	h122.67l169.87,133.7c6.2,5.17,13.1,7.23,19.99,7.23c16.53,0,31.7-12.75,31.7-31.35l0.69-532.36
	C538.96,245.42,523.46,232.68,506.91,232.68z"/>
<path class="st6" d="M762.83,387.29c13.69,0,24.78,11.1,24.78,24.78v82.61h82.61c13.69,0,24.78,11.1,24.78,24.78
	c0,13.69-11.1,24.78-24.78,24.78h-82.61v82.61c0,13.69-11.1,24.78-24.78,24.78c-13.69,0-24.78-11.1-24.78-24.78v-82.61h-82.61
	c-13.69,0-24.78-11.09-24.78-24.78c0-13.69,11.1-24.78,24.78-24.78h82.61v-82.61C738.05,398.39,749.14,387.29,762.83,387.29z
	 M487.4,296.75l-0.71,475.67l-148.6-116.99c-8.43-6.67-18.97-10.18-29.51-10.18H182.81l0.71-207.63l123.31-0.34
	c11.6,0,22.48-4.23,31.27-11.6L487.4,296.75z M502.86,230.34c-7.03,0-14.41,2.46-20.38,7.38L306.82,389.49H183.52
	c-26.7,0-48.13,21.44-48.13,47.78l-0.35,207.97c0,26.35,21.79,48.13,48.48,48.13h125.06l173.2,136.31
	c6.32,5.27,13.35,7.37,20.38,7.37c16.85,0,32.32-13,32.32-31.96l0.7-542.77C535.53,243.34,519.72,230.34,502.86,230.34z"/>
<g>
	<path class="st7" d="M413.12,143.7c203.79-54.61,413.27,66.33,467.87,270.13c54.61,203.79-66.33,413.27-270.13,467.87
		S197.6,815.37,142.99,611.57c-31.85-118.87-4.57-243.48,70.87-337.77c3.66-4.58,10.34-5.32,14.92-1.66
		c4.58,3.66,5.32,10.34,1.66,14.92c-71.26,89.07-97.02,206.74-66.94,319.02C215.06,798.55,412.9,912.77,605.37,861.2
		c192.47-51.57,306.69-249.41,255.12-441.88C808.92,226.85,611.08,112.63,418.61,164.2c-5.66,1.52-11.48-1.84-13-7.5
		C404.1,151.04,407.45,145.22,413.12,143.7z"/>
	<path class="st7" d="M522.37,544.53c-7.46,0-13.56-6.1-13.56-13.56V388.38c0-7.46,6.1-13.56,13.56-13.56
		c7.46,0,13.56,6.1,13.56,13.56v142.59C535.93,538.47,529.83,544.53,522.37,544.53z M522.5,671.77c-20.06,0-39.53-3.95-57.87-11.71
		c-17.71-7.49-33.59-18.21-47.25-31.87c-13.66-13.66-24.37-29.55-31.87-47.25c-7.76-18.34-11.71-37.8-11.71-57.87
		c0-20.06,3.95-39.53,11.71-57.87c7.49-17.71,18.21-33.59,31.87-47.25c5.34-5.34,13.99-5.34,19.33,0c5.34,5.34,5.34,13.99,0,19.33
		c-22.91,22.91-35.55,53.39-35.55,85.79c0,66.89,54.42,121.34,121.34,121.34c66.89,0,121.34-54.42,121.34-121.34
		c0-32.4-12.63-62.87-35.55-85.79c-5.34-5.34-5.34-13.99,0-19.33c5.34-5.34,13.99-5.34,19.33,0c13.66,13.66,24.37,29.55,31.87,47.25
		c7.76,18.34,11.71,37.8,11.71,57.87c0,20.06-3.95,39.53-11.71,57.87c-7.49,17.71-18.21,33.59-31.87,47.25
		c-13.66,13.66-29.55,24.37-47.25,31.87C562.03,667.86,542.56,671.77,522.5,671.77z M522.5,671.77c-20.06,0-39.53-3.95-57.87-11.71
		c-17.71-7.49-33.59-18.21-47.25-31.87c-13.66-13.66-24.37-29.55-31.87-47.25c-7.76-18.34-11.71-37.8-11.71-57.87
		c0-20.06,3.95-39.53,11.71-57.87c7.49-17.71,18.21-33.59,31.87-47.25c5.34-5.34,13.99-5.34,19.33,0c5.34,5.34,5.34,13.99,0,19.33
		c-22.91,22.91-35.55,53.39-35.55,85.79c0,66.89,54.42,121.34,121.34,121.34c66.89,0,121.34-54.42,121.34-121.34
		c0-32.4-12.63-62.87-35.55-85.79c-5.34-5.34-5.34-13.99,0-19.33c5.34-5.34,13.99-5.34,19.33,0c13.66,13.66,24.37,29.55,31.87,47.25
		c7.76,18.34,11.71,37.8,11.71,57.87c0,20.06-3.95,39.53-11.71,57.87c-7.49,17.71-18.21,33.59-31.87,47.25
		c-13.66,13.66-29.55,24.37-47.25,31.87C562.03,667.86,542.56,671.77,522.5,671.77z"/>
</g>
</svg>
