<?xml version="1.0" encoding="utf-8"?>
<!-- Generator: Adobe Illustrator 23.0.2, SVG Export Plug-In . SVG Version: 6.00 Build 0)  -->
<svg version="1.1" id="图层_1" xmlns="http://www.w3.org/2000/svg" xmlns:xlink="http://www.w3.org/1999/xlink" x="0px" y="0px"
	 viewBox="0 0 1024 1024" style="enable-background:new 0 0 1024 1024;" xml:space="preserve">
<style type="text/css">
	.st0{fill:#A3A3A3;}
</style>
<path class="st0" d="M523.24,354.23c6.21,0,11.65,5.44,11.65,11.65v40.39l29.51-17.09c3.11-2.33,6.99-0.78,9.32,2.33
	c2.33,3.11,0.78,6.99-2.33,9.32l-36.51,20.97v82.33l72.23-41.17v-41.94c0-3.88,3.11-6.99,6.99-6.99c3.88,0,6.99,3.11,6.99,6.99
	v34.17L655.28,435c6.21-3.11,13.2-0.78,16.31,4.66c3.11,5.44,0.78,13.2-3.88,16.31l-34.17,19.42l29.51,17.09
	c3.11,1.55,4.66,6.21,2.33,9.32c-1.55,2.33-3.88,3.88-6.21,3.88c-1.55,0-3.11,0-3.88-0.78l-36.5-20.97l-72.23,41.17l73.79,41.17
	l36.51-20.97c3.11-2.33,6.99-0.78,9.32,2.33c2.33,3.11,0.78,6.99-2.33,9.32l-29.51,17.09l34.17,19.42
	c6.21,3.11,7.77,10.87,4.66,16.31c-2.33,3.88-6.21,6.21-10.1,6.21c-2.33,0-4.66-0.78-6.21-1.55L622.66,595v33.4
	c0,3.88-3.11,6.99-6.99,6.99s-6.99-3.11-6.99-6.99v-41.94l-72.23-41.17v83.11l36.5,20.97c3.11,1.55,4.66,6.21,2.33,9.32
	c-1.55,2.33-3.88,3.88-6.21,3.88c-1.55,0-3.11,0-3.88-0.78l-29.51-17.09v39.61c0,6.21-5.44,11.65-11.65,11.65
	s-11.65-5.44-11.65-11.65v-39.61l-29.51,17.09c-1.55,0.78-2.33,0.78-3.88,0.78c-2.33,0-4.66-1.55-6.21-3.88
	c-2.33-3.11-0.78-6.99,2.33-9.32l36.51-20.19v-83.11l-72.23,41.17v41.94c0,3.88-3.11,6.99-6.99,6.99c-3.88,0-6.99-3.11-6.99-6.99
	V595l-34.17,19.42c-2.33,0.78-3.88,1.55-6.21,1.55c-3.88,0-7.77-2.33-10.1-6.21c-3.11-6.21-0.78-13.2,4.66-16.31l34.17-19.42
	l-29.51-17.09c-3.11-1.55-4.66-6.21-2.33-9.32c1.55-3.11,6.21-4.66,9.32-2.33l36.5,20.97l72.23-41.17l-71.46-41.17l-36.5,20.97
	c-1.55,0.78-2.33,0.78-3.88,0.78c-2.33,0-4.66-1.55-6.21-3.88c-2.33-3.11-0.78-7.77,2.33-9.32l29.51-17.09l-34.17-19.42
	c-6.21-3.11-7.77-10.87-4.66-16.31c3.88-5.44,10.87-7.77,16.31-4.66l34.17,20.19v-34.17c0-3.88,3.11-6.99,6.99-6.99
	c3.88,0,6.99,3.11,6.99,6.99v41.94l72.23,41.17v-83.11l-36.51-20.97c-3.11-1.55-4.66-6.21-2.33-9.32c1.55-3.11,6.21-4.66,9.32-2.33
	l29.51,17.09v-39.61C511.59,359.66,517.03,354.23,523.24,354.23z M883.93,414.91c54.96,205.1-66.76,415.92-271.86,470.87
	c-205.1,54.96-415.92-66.76-470.87-271.86c-32.06-119.63-4.59-245.05,71.32-339.94c3.68-4.61,10.41-5.35,15.01-1.67
	c4.61,3.68,5.35,10.41,1.67,15.01c-71.72,89.64-97.65,208.06-67.37,321.06c51.9,193.71,251.01,308.66,444.71,256.76
	S915.2,614.15,863.3,420.44c-51.9-193.71-251.01-308.66-444.71-256.76c-5.7,1.53-11.55-1.85-13.08-7.55
	c-1.53-5.7,1.85-11.55,7.55-13.08C618.16,88.1,828.97,209.81,883.93,414.91z"/>
</svg>
