<?xml version="1.0" encoding="utf-8"?>
<!-- Generator: Adobe Illustrator 23.0.2, SVG Export Plug-In . SVG Version: 6.00 Build 0)  -->
<svg version="1.1" id="图层_1" xmlns="http://www.w3.org/2000/svg" xmlns:xlink="http://www.w3.org/1999/xlink" x="0px" y="0px"
	 viewBox="0 0 1024 1024" style="enable-background:new 0 0 1024 1024;" xml:space="preserve">
<style type="text/css">
	.st0{display:none;fill-rule:evenodd;clip-rule:evenodd;}
	.st1{fill-rule:evenodd;clip-rule:evenodd;}
</style>
<path class="st0" d="M195.93,447.72h640.36c35.37,0,64.04,28.67,64.04,64.04s-28.67,64.04-64.04,64.04H195.93
	c-35.37,0-64.04-28.67-64.04-64.04S160.57,447.72,195.93,447.72z"/>
<path class="st1" d="M512.69,131.74c35.16,0,63.66,28.5,63.66,63.66v254.63h254.63c35.16,0,63.66,28.5,63.66,63.66
	c0,35.16-28.5,63.66-63.66,63.66H576.35v254.63c0,35.16-28.5,63.66-63.66,63.66c-35.16,0-63.66-28.5-63.66-63.66V577.35H194.4
	c-35.16,0-63.66-28.5-63.66-63.66c0-35.16,28.5-63.66,63.66-63.66h254.63V195.4C449.03,160.24,477.53,131.74,512.69,131.74z"/>
</svg>
