<?xml version="1.0" encoding="utf-8"?>
<!-- Generator: Adobe Illustrator 23.0.2, SVG Export Plug-In . SVG Version: 6.00 Build 0)  -->
<svg version="1.1" id="图层_1" xmlns="http://www.w3.org/2000/svg" xmlns:xlink="http://www.w3.org/1999/xlink" x="0px" y="0px"
	 viewBox="0 0 1024 1024" style="enable-background:new 0 0 1024 1024;" xml:space="preserve">
<style type="text/css">
	.st0{display:none;fill-rule:evenodd;clip-rule:evenodd;}
	.st1{display:none;fill:#A3A3A3;}
	.st2{fill:#163070;}
</style>
<path class="st0" d="M195.93,447.72h640.36c35.37,0,64.04,28.67,64.04,64.04s-28.67,64.04-64.04,64.04H195.93
	c-35.37,0-64.04-28.67-64.04-64.04S160.57,447.72,195.93,447.72z"/>
<path class="st0" d="M512.69,131.74c35.16,0,63.66,28.5,63.66,63.66v254.63h254.63c35.16,0,63.66,28.5,63.66,63.66
	c0,35.16-28.5,63.66-63.66,63.66H576.35v254.63c0,35.16-28.5,63.66-63.66,63.66c-35.16,0-63.66-28.5-63.66-63.66V577.35H194.4
	c-35.16,0-63.66-28.5-63.66-63.66c0-35.16,28.5-63.66,63.66-63.66h254.63V195.4C449.03,160.24,477.53,131.74,512.69,131.74z"/>
<path class="st1" d="M538.69,406.37c2.31,0,3.67,2.61,2.33,4.5l-6.79,9.6c-0.53,0.76-1.4,1.21-2.33,1.21h-53.43
	c-0.88,0-1.7-0.4-2.24-1.09l-7.55-9.6c-1.47-1.87-0.14-4.62,2.24-4.62H538.69z M519.82,435.64c2.31,0,3.67,2.61,2.33,4.5l-1.63,2.3
	c-0.53,0.76-1.4,1.21-2.33,1.21H491.6c-0.87,0-1.7-0.4-2.24-1.09l-1.81-2.3c-1.47-1.87-0.14-4.62,2.24-4.62H519.82z M521.99,484.59
	c1.58,0,2.85,1.28,2.85,2.85v75.92c0,1.58-1.28,2.85-2.85,2.85h-34.73c-1.58,0-2.85-1.28-2.85-2.85v-75.92
	c0-1.58,1.28-2.85,2.85-2.85H521.99z M568.03,458.49c1.63-1.17,3.93-0.03,3.93,1.95v127.44c0,2.04-2.41,3.16-4.02,1.87l-21.19-16.93
	c-0.57-0.46-0.91-1.15-0.91-1.87v-95.28c0-0.77,0.37-1.49,1.01-1.95L568.03,458.49z M441.09,458.49l21.19,15.23
	c0.63,0.46,1.01,1.18,1.01,1.95v95.28c0,0.73-0.33,1.41-0.91,1.87l-21.19,16.93c-1.61,1.29-4.02,0.16-4.02-1.87V460.44
	C437.17,458.46,439.46,457.32,441.09,458.49z M634.63,406.15c1.88-1.38,4.54-0.04,4.54,2.3v233.53c0,2.4-2.79,3.73-4.66,2.21
	l-40-32.62c-0.66-0.54-1.05-1.35-1.05-2.21V437.8c0-0.91,0.43-1.76,1.17-2.3L634.63,406.15z M374.49,406.15l40,29.35
	c0.73,0.54,1.17,1.39,1.17,2.3v171.57c0,0.86-0.39,1.67-1.05,2.21l-40,32.62c-1.86,1.52-4.66,0.19-4.66-2.21V408.45
	C369.95,406.12,372.61,404.77,374.49,406.15z M886.27,415.34c54.8,204.53-66.57,414.75-271.1,469.55
	c-204.53,54.8-414.75-66.57-469.55-271.1c-31.97-119.3-4.58-244.36,71.12-338.98c3.67-4.59,10.38-5.34,14.97-1.66
	c4.59,3.67,5.34,10.38,1.66,14.97C161.85,377.51,136,495.6,166.19,608.28c51.76,193.16,250.3,307.79,443.47,256.04
	c193.16-51.76,307.79-250.3,256.04-443.47c-51.76-193.16-250.3-307.79-443.47-256.04c-5.68,1.52-11.52-1.85-13.04-7.53
	c-1.52-5.68,1.85-11.52,7.53-13.04C621.24,89.44,831.47,210.82,886.27,415.34z"/>
<path class="st2" d="M601.74,463.45H488.88l-0.01,28.22h112.85L601.74,463.45z M644.63,412.67H446.56l-9.03,79h28.77l0.01-50.79h158
	l-0.01,50.79h28.22L644.63,412.67z M689.21,514.24H407.06v84.65h282.15V514.24z M665.51,390.1l10.14,101.57h36.14v129.79
	l-39.52-0.01l0.02,22.58h-22.57l-0.01-22.58H446.55l0.01,22.58h-22.57l-0.01-22.58l-39.49,0.01V491.67h30.66l11.1-101.57H665.51z
	 M905.48,410.72c54.45,203.2-66.14,412.06-269.34,466.51c-203.2,54.45-412.06-66.14-466.51-269.34
	c-31.76-118.52-4.55-242.77,70.66-336.79c3.65-4.56,10.31-5.3,14.87-1.65c4.56,3.65,5.3,10.31,1.65,14.87
	c-71.05,88.81-96.74,206.14-66.74,318.09c51.42,191.91,248.68,305.8,440.59,254.38s305.8-248.68,254.38-440.59
	c-51.42-191.91-248.68-305.8-440.59-254.38c-5.64,1.51-11.45-1.84-12.96-7.48c-1.51-5.64,1.84-11.45,7.48-12.96
	C642.17,86.93,851.03,207.52,905.48,410.72z"/>
</svg>
