<?xml version="1.0" encoding="utf-8"?>
<!-- Generator: Adobe Illustrator 23.0.2, SVG Export Plug-In . SVG Version: 6.00 Build 0)  -->
<svg version="1.1" id="图层_1" xmlns="http://www.w3.org/2000/svg" xmlns:xlink="http://www.w3.org/1999/xlink" x="0px" y="0px"
	 viewBox="0 0 1024 1024" style="enable-background:new 0 0 1024 1024;" xml:space="preserve">
<style type="text/css">
	.st0{display:none;fill:#163070;}
	.st1{fill:#EBB682;}
</style>
<path class="st0" d="M527.01,127.99c11.34,0,20.56,9.18,20.56,20.56v41.12c0,11.38-9.18,20.56-20.56,20.56
	c-11.34,0-20.56-9.18-20.56-20.56v-41.12C506.45,137.17,515.67,127.99,527.01,127.99z M225.33,220.8
	c8.42-7.59,21.42-6.94,29.04,1.52l27.52,30.56c7.62,8.46,6.9,21.45-1.52,29.04c-8.46,7.62-21.42,6.94-29.04-1.52l-27.52-30.56
	C216.19,241.38,216.91,228.39,225.33,220.8z M801.27,220.8c8.42,7.59,9.14,20.58,1.52,29.04l-27.52,30.56
	c-7.62,8.46-20.58,9.14-29.04,1.52c-8.42-7.59-9.14-20.58-1.52-29.04l27.52-30.56C779.85,213.86,792.85,213.22,801.27,220.8z
	 M191.16,477.54c11.38,0,20.56,9.23,20.56,20.56c0,11.38-9.18,20.56-20.56,20.56h-41.12c-11.38,0-20.56-9.23-20.56-20.56
	c0-11.34,9.18-20.56,20.56-20.56H191.16z M876.56,477.54c11.38,0,20.56,9.23,20.56,20.56c0,11.34-9.18,20.56-20.56,20.56h-41.12
	c-11.38,0-20.56-9.18-20.56-20.56c0-11.34,9.18-20.56,20.56-20.56H876.56z M516.58,306.19c104.02,0,188.34,84.32,188.34,188.34
	c0,7.57-6.14,13.71-13.71,13.71s-13.71-6.14-13.71-13.71c0-88.87-72.05-160.92-160.92-160.92c-88.87,0-160.92,72.05-160.92,160.92
	c0,88.87,72.05,160.92,160.92,160.92c47.05,0,90.79-20.29,121.18-55.03c4.98-5.7,13.64-6.28,19.34-1.29
	c5.7,4.98,6.28,13.64,1.29,19.34c-35.54,40.63-86.77,64.4-141.81,64.4c-104.02,0-188.34-84.32-188.34-188.34
	C328.24,390.52,412.56,306.19,516.58,306.19z M280.37,714.29c8.42,7.59,9.14,20.58,1.52,29.04l-27.52,30.56
	c-7.62,8.46-20.58,9.14-29.04,1.52c-8.42-7.59-9.14-20.58-1.52-29.04l27.52-30.56C258.94,707.35,271.94,706.7,280.37,714.29z
	 M746.24,741.71c8.42-7.59,21.42-6.94,29.04,1.52l27.52,30.56c7.62,8.46,6.9,21.45-1.52,29.04c-8.46,7.62-21.42,6.94-29.04-1.52
	l-27.52-30.56C737.1,762.29,737.81,749.29,746.24,741.71z M527.01,785.98c11.34,0,20.56,12.3,20.56,27.42v54.83
	c0,15.18-9.23,27.42-20.56,27.42s-20.56-12.24-20.56-27.42v-54.83C506.45,798.28,515.67,785.98,527.01,785.98z"/>
<path class="st1" d="M526.85,127.99c11.34,0,20.57,9.18,20.57,20.57v41.14c0,11.39-9.18,20.57-20.57,20.57
	c-11.34,0-20.57-9.18-20.57-20.57v-41.14C506.28,137.17,515.51,127.99,526.85,127.99z M225.04,220.84
	c8.43-7.59,21.43-6.94,29.05,1.52l27.53,30.57c7.62,8.46,6.91,21.46-1.52,29.05c-8.46,7.62-21.43,6.94-29.05-1.52l-27.53-30.57
	C215.9,241.43,216.61,228.43,225.04,220.84z M801.23,220.84c8.43,7.59,9.14,20.59,1.52,29.05l-27.53,30.57
	c-7.62,8.46-20.59,9.14-29.05,1.52c-8.43-7.59-9.14-20.59-1.52-29.05l27.53-30.57C779.8,213.9,792.8,213.25,801.23,220.84z
	 M190.85,477.7c11.39,0,20.57,9.23,20.57,20.57c0,11.39-9.18,20.57-20.57,20.57h-41.14c-11.39,0-20.57-9.23-20.57-20.57
	c0-11.34,9.18-20.57,20.57-20.57H190.85z M876.55,477.7c11.39,0,20.57,9.23,20.57,20.57c0,11.34-9.18,20.57-20.57,20.57h-41.14
	c-11.39,0-20.57-9.18-20.57-20.57c0-11.34,9.18-20.57,20.57-20.57H876.55z M516.41,306.27c104.06,0,188.42,84.36,188.42,188.42
	c0,7.57-6.14,13.71-13.71,13.71c-7.57,0-13.71-6.14-13.71-13.71c0-88.91-72.08-160.99-160.99-160.99
	c-88.91,0-160.99,72.08-160.99,160.99c0,88.91,72.08,160.99,160.99,160.99c47.08,0,90.83-20.3,121.23-55.06
	c4.99-5.7,13.65-6.28,19.35-1.29c5.7,4.99,6.28,13.65,1.29,19.35c-35.55,40.65-86.8,64.43-141.88,64.43
	c-104.06,0-188.42-84.36-188.42-188.42C327.99,390.63,412.35,306.27,516.41,306.27z M280.1,714.55c8.43,7.59,9.14,20.59,1.52,29.05
	l-27.53,30.57c-7.62,8.46-20.59,9.14-29.05,1.52c-8.43-7.59-9.14-20.59-1.52-29.05l27.53-30.57
	C258.66,707.61,271.67,706.96,280.1,714.55z M746.17,741.97c8.43-7.59,21.43-6.94,29.05,1.52l27.53,30.57
	c7.62,8.46,6.91,21.46-1.52,29.05c-8.46,7.62-21.43,6.94-29.05-1.52l-27.53-30.57C737.03,762.56,737.74,749.56,746.17,741.97z
	 M526.85,786.26c11.34,0,20.57,12.31,20.57,27.43v54.86c0,15.18-9.23,27.43-20.57,27.43s-20.57-12.24-20.57-27.43v-54.86
	C506.28,798.57,515.51,786.26,526.85,786.26z"/>
</svg>
