<?xml version="1.0" encoding="utf-8"?>
<!-- Generator: Adobe Illustrator 23.0.2, SVG Export Plug-In . SVG Version: 6.00 Build 0)  -->
<svg version="1.1" id="图层_1" xmlns="http://www.w3.org/2000/svg" xmlns:xlink="http://www.w3.org/1999/xlink" x="0px" y="0px"
	 viewBox="0 0 1024 1024" style="enable-background:new 0 0 1024 1024;" xml:space="preserve">
<style type="text/css">
	.st0{display:none;fill:#777777;}
	.st1{fill:#EBB682;}
</style>
<path class="st0" d="M201.77,278.94c-10.69-11.09-26.53-15.55-41.42-11.64c-14.89,3.9-26.52,15.56-30.42,30.48
	c-3.9,14.92,0.55,30.78,11.62,41.5l340.67,341.34c16.63,16.66,43.58,16.66,60.21,0l340.67-341.34
	c11.07-10.71,15.52-26.58,11.62-41.5c-3.9-14.92-15.53-26.57-30.42-30.48c-14.89-3.9-30.72,0.55-41.42,11.64L512.34,590.11
	L201.77,278.94L201.77,278.94z"/>
<path class="st1" d="M887.35,468.03c-54.37,66.23-150.51,175.56-150.51,175.56s15.72,120.04,24.54,202.03
	c3.83,41.76-26.28,59.82-60.38,43.54c-64.88-32.6-163.62-83.1-185.83-94.48c-22.6,11.26-122.33,60.93-187.89,93.45
	c-34.49,16.24-64.96-1.82-61.09-43.51c8.93-81.87,24.82-201.8,24.82-201.8s-97.24-109.1-152.24-175.24
	c-19.44-24.02-6.96-58.17,31.37-64.45c78.16-14.78,199.31-38.33,199.31-38.33s66.26-122.13,108.19-196.93
	c23.07-45.52,39.04-40.26,41.76-38.92c7.11,2.45,18.34,11.3,32.99,38.96c41.45,74.92,106.96,197.21,106.96,197.21
	s119.72,23.55,196.97,38.37C894.19,409.83,906.56,444.01,887.35,468.03L887.35,468.03z"/>
</svg>
