<?xml version="1.0" encoding="utf-8"?>
<!-- Generator: Adobe Illustrator 23.0.2, SVG Export Plug-In . SVG Version: 6.00 Build 0)  -->
<svg version="1.1" id="图层_1" xmlns="http://www.w3.org/2000/svg" xmlns:xlink="http://www.w3.org/1999/xlink" x="0px" y="0px"
	 viewBox="0 0 1024 1024" style="enable-background:new 0 0 1024 1024;" xml:space="preserve">
<style type="text/css">
	.st0{opacity:0;}
	.st1{fill:none;}
	.st2{fill:#777777;}
</style>
<rect x="-44.09" y="-92.51" class="st0" width="1146.61" height="1145.24"/>
<rect x="176.41" y="128" class="st1" width="705.61" height="704.23"/>
<path class="st2" d="M345.46,765.05c-10.18,9.81-14.26,24.34-10.68,38c3.58,13.66,14.27,24.33,27.96,27.91
	c13.69,3.58,28.25-0.5,38.07-10.66l313.18-312.56c15.28-15.26,15.28-39.99,0-55.25L400.81,139.92
	c-9.83-10.16-24.38-14.24-38.07-10.66c-13.69,3.58-24.38,14.24-27.96,27.91c-3.58,13.66,0.5,28.19,10.68,38l285.5,284.94
	L345.46,765.05L345.46,765.05z"/>
</svg>
