<?xml version="1.0" encoding="utf-8"?>
<!-- Generator: Adobe Illustrator 23.0.2, SVG Export Plug-In . SVG Version: 6.00 Build 0)  -->
<svg version="1.1" id="图层_1" xmlns="http://www.w3.org/2000/svg" xmlns:xlink="http://www.w3.org/1999/xlink" x="0px" y="0px"
	 viewBox="0 0 1024 1024" style="enable-background:new 0 0 1024 1024;" xml:space="preserve">
<style type="text/css">
	.st0{display:none;fill:#163070;}
	.st1{fill:#163070;}
</style>
<path class="st0" d="M768.83,322.91v30H597.8v-30H768.83z M648.79,526.67H375.74v100h273.05V526.67z M807.85,216.66
	c46.71,0,84.88,36.61,87.37,82.7l0.13,4.8v262.5c0,6.9-5.6,12.5-12.5,12.5c-6.14,0-11.24-4.42-12.3-10.25l-0.2-2.25v-262.5
	c0-33.14-25.79-60.25-58.39-62.37l-4.11-0.13H216.71c-33.14,0-60.25,25.79-62.37,58.39l-0.13,4.11v262.5
	c0,33.14,25.79,60.25,58.39,62.37l4.11,0.13h134.03l0.01-127.5h323.06l-0.02,127.5h134.06c6.9,0,12.5,5.6,12.5,12.5
	c0,6.14-4.42,11.24-10.25,12.3l-2.25,0.2H216.71c-46.71,0-84.88-36.61-87.37-82.7l-0.13-4.8v-262.5c0-46.71,36.61-84.88,82.7-87.37
	l4.8-0.13H807.85z M762.33,679.17c6.9,0,12.5,5.6,12.5,12.5v125c0,6.9-5.6,12.5-12.5,12.5c-6.9,0-12.5-5.6-12.5-12.5v-125
	C749.83,684.77,755.43,679.17,762.33,679.17z M515.28,679.17c6.9,0,12.5,5.6,12.5,12.5v125c0,6.9-5.6,12.5-12.5,12.5
	c-6.9,0-12.5-5.6-12.5-12.5v-125C502.78,684.77,508.38,679.17,515.28,679.17z M268.23,679.17c6.9,0,12.5,5.6,12.5,12.5v125
	c0,6.9-5.6,12.5-12.5,12.5s-12.5-5.6-12.5-12.5v-125C255.73,684.77,261.33,679.17,268.23,679.17z"/>
<path class="st1" d="M767.75,154.93h-95.77l-5.15,0.14c-49.44,2.67-88.7,43.61-88.7,93.72v162.93l189.62,0.02
	c51.83,0,93.85-42.02,93.85-93.85v-69.1C861.6,196.95,819.58,154.93,767.75,154.93z M354.02,154.93h-95.77
	c-51.83,0-93.85,42.02-93.85,93.85v69.1c0,51.83,42.02,93.85,93.85,93.85l189.61-0.02l0.01-162.93c0-50.11-39.27-91.04-88.7-93.72
	L354.02,154.93z M767.75,128.12c66.64,0,120.67,54.03,120.67,120.67v69.1c0,66.64-54.03,120.67-120.67,120.67H551.31V248.78
	c0-66.64,54.03-120.67,120.67-120.67H767.75z M354.02,128.12c66.64,0,120.67,54.03,120.67,120.67v189.77H258.25
	c-66.64,0-120.67-54.03-120.67-120.67v-69.1c0-66.64,54.03-120.67,120.67-120.67H354.02z M447.87,541.69H258.25
	c-51.83,0-93.85,42.02-93.85,93.85v69.1c0,51.83,42.02,93.85,93.85,93.85h95.77l5.15-0.14c49.44-2.67,88.7-43.61,88.7-93.72
	L447.87,541.69z M767.75,514.88c64.74,0,117.57,50.98,120.54,114.99l0.13,5.68v69.1c0,7.4-6,13.41-13.41,13.41
	c-6.58,0-12.06-4.74-13.19-11l-0.22-2.41v-69.1c0-50.11-39.27-91.04-88.7-93.72l-5.15-0.14H578.12v162.96
	c0,50.11,39.27,91.04,88.7,93.72l5.15,0.14h95.77c7.4,0,13.41,6,13.41,13.41c0,6.58-4.74,12.06-11,13.19l-2.41,0.22h-95.77
	c-64.74,0-117.57-50.98-120.54-114.99l-0.13-5.68V514.88H767.75z M474.69,514.88v189.77c0,66.64-54.03,120.67-120.67,120.67h-95.77
	c-66.64,0-120.67-54.03-120.67-120.67v-69.1c0-66.64,54.03-120.67,120.67-120.67H474.69z"/>
</svg>
