<?xml version="1.0" encoding="utf-8"?>
<!-- Generator: Adobe Illustrator 23.0.2, SVG Export Plug-In . SVG Version: 6.00 Build 0)  -->
<svg version="1.1" id="图层_1" xmlns="http://www.w3.org/2000/svg" xmlns:xlink="http://www.w3.org/1999/xlink" x="0px" y="0px"
	 viewBox="0 0 1024 1024" style="enable-background:new 0 0 1024 1024;" xml:space="preserve">
<style type="text/css">
	.st0{display:none;fill-rule:evenodd;clip-rule:evenodd;fill:#C0C4CC;}
	.st1{display:none;fill:#EBB682;}
	.st2{fill:#E0E0E0;}
</style>
<path class="st0" d="M309.72,134.94c12.85-11.54,34.26-11.54,47.11,0l393.98,354.01c4.82,4.33,7.83,9.74,9.03,15.42l0.6,5.74
	c0,7.7-3.21,15.39-9.63,21.16l-393.98,354c-12.85,11.54-34.26,11.54-47.11,0c-12.84-11.54-12.84-30.78,0-42.33l370.36-332.86
	L309.72,177.27C296.88,165.72,296.88,146.48,309.72,134.94z"/>
<path class="st1" d="M837.46,454.06h-268.6v-268.6c0-31.71-25.7-57.41-57.41-57.41c-31.71,0-57.41,25.7-57.41,57.41v268.6h-268.6
	c-31.7,0-57.4,25.71-57.4,57.41s25.7,57.41,57.4,57.41h268.6v268.6c0,31.71,25.7,57.41,57.41,57.41c31.71,0,57.41-25.7,57.41-57.41
	v-268.6h268.6c31.71,0,57.41-25.7,57.41-57.41c0-15.23-6.04-29.83-16.81-40.6C867.29,460.1,852.68,454.06,837.46,454.06z"/>
<path class="st1" d="M401.93,710.96l-160.5-156.55l28.35-41.21l132.15,94.6l310.42-253.29l27.66,21.36L401.93,710.98L401.93,710.96z
	 M497.41,130.53c-220.89,0-399.97,179.07-399.97,399.97s179.07,399.97,399.97,399.97S897.37,751.39,897.37,530.5
	S718.3,130.53,497.41,130.53z"/>
<path class="st2" d="M423.69,698.36L270.13,548.58l27.12-39.43l126.43,90.51l296.99-242.33l26.47,20.43L423.69,698.37L423.69,698.36
	z M515.04,143.03c-211.34,0-382.67,171.33-382.67,382.67S303.7,908.36,515.04,908.36c211.34,0,382.67-171.33,382.67-382.67
	S726.38,143.03,515.04,143.03z"/>
</svg>
