<?xml version="1.0" encoding="utf-8"?>
<!-- Generator: Adobe Illustrator 23.0.2, SVG Export Plug-In . SVG Version: 6.00 Build 0)  -->
<svg version="1.1" id="图层_1" xmlns="http://www.w3.org/2000/svg" xmlns:xlink="http://www.w3.org/1999/xlink" x="0px" y="0px"
	 viewBox="0 0 1024 1024" style="enable-background:new 0 0 1024 1024;" xml:space="preserve">
<style type="text/css">
	.st0{display:none;fill-rule:evenodd;clip-rule:evenodd;}
	.st1{display:none;fill:#A3A3A3;}
	.st2{display:none;fill:#163070;}
	.st3{display:none;}
	.st4{display:inline;fill:#163070;}
	.st5{display:inline;fill-rule:evenodd;clip-rule:evenodd;fill:#163070;}
	.st6{display:inline;fill-rule:evenodd;clip-rule:evenodd;fill:#4D81A7;}
	.st7{display:inline;fill-rule:evenodd;clip-rule:evenodd;fill:#FFF07A;}
	.st8{display:inline;fill-rule:evenodd;clip-rule:evenodd;fill:#F7CE76;}
	.st9{fill:#F9C626;}
	.st10{fill-rule:evenodd;clip-rule:evenodd;fill:#163070;}
</style>
<path class="st0" d="M195.93,447.72h640.36c35.37,0,64.04,28.67,64.04,64.04s-28.67,64.04-64.04,64.04H195.93
	c-35.37,0-64.04-28.67-64.04-64.04S160.57,447.72,195.93,447.72z"/>
<path class="st0" d="M512.69,131.74c35.16,0,63.66,28.5,63.66,63.66v254.63h254.63c35.16,0,63.66,28.5,63.66,63.66
	c0,35.16-28.5,63.66-63.66,63.66H576.35v254.63c0,35.16-28.5,63.66-63.66,63.66c-35.16,0-63.66-28.5-63.66-63.66V577.35H194.4
	c-35.16,0-63.66-28.5-63.66-63.66c0-35.16,28.5-63.66,63.66-63.66h254.63V195.4C449.03,160.24,477.53,131.74,512.69,131.74z"/>
<path class="st1" d="M538.69,406.37c2.31,0,3.67,2.61,2.33,4.5l-6.79,9.6c-0.53,0.76-1.4,1.21-2.33,1.21h-53.43
	c-0.88,0-1.7-0.4-2.24-1.09l-7.55-9.6c-1.47-1.87-0.14-4.62,2.24-4.62H538.69z M519.82,435.64c2.31,0,3.67,2.61,2.33,4.5l-1.63,2.3
	c-0.53,0.76-1.4,1.21-2.33,1.21H491.6c-0.87,0-1.7-0.4-2.24-1.09l-1.81-2.3c-1.47-1.87-0.14-4.62,2.24-4.62H519.82z M521.99,484.59
	c1.58,0,2.85,1.28,2.85,2.85v75.92c0,1.58-1.28,2.85-2.85,2.85h-34.73c-1.58,0-2.85-1.28-2.85-2.85v-75.92
	c0-1.58,1.28-2.85,2.85-2.85H521.99z M568.03,458.49c1.63-1.17,3.93-0.03,3.93,1.95v127.44c0,2.04-2.41,3.16-4.02,1.87l-21.19-16.93
	c-0.57-0.46-0.91-1.15-0.91-1.87v-95.28c0-0.77,0.37-1.49,1.01-1.95L568.03,458.49z M441.09,458.49l21.19,15.23
	c0.63,0.46,1.01,1.18,1.01,1.95v95.28c0,0.73-0.33,1.41-0.91,1.87l-21.19,16.93c-1.61,1.29-4.02,0.16-4.02-1.87V460.44
	C437.17,458.46,439.46,457.32,441.09,458.49z M634.63,406.15c1.88-1.38,4.54-0.04,4.54,2.3v233.53c0,2.4-2.79,3.73-4.66,2.21
	l-40-32.62c-0.66-0.54-1.05-1.35-1.05-2.21V437.8c0-0.91,0.43-1.76,1.17-2.3L634.63,406.15z M374.49,406.15l40,29.35
	c0.73,0.54,1.17,1.39,1.17,2.3v171.57c0,0.86-0.39,1.67-1.05,2.21l-40,32.62c-1.86,1.52-4.66,0.19-4.66-2.21V408.45
	C369.95,406.12,372.61,404.77,374.49,406.15z M886.27,415.34c54.8,204.53-66.57,414.75-271.1,469.55
	c-204.53,54.8-414.75-66.57-469.55-271.1c-31.97-119.3-4.58-244.36,71.12-338.98c3.67-4.59,10.38-5.34,14.97-1.66
	c4.59,3.67,5.34,10.38,1.66,14.97C161.85,377.51,136,495.6,166.19,608.28c51.76,193.16,250.3,307.79,443.47,256.04
	c193.16-51.76,307.79-250.3,256.04-443.47c-51.76-193.16-250.3-307.79-443.47-256.04c-5.68,1.52-11.52-1.85-13.04-7.53
	c-1.52-5.68,1.85-11.52,7.53-13.04C621.24,89.44,831.47,210.82,886.27,415.34z"/>
<path class="st2" d="M601.74,463.45H488.88l-0.01,28.22h112.85L601.74,463.45z M644.63,412.67H446.56l-9.03,79h28.77l0.01-50.79h158
	l-0.01,50.79h28.22L644.63,412.67z M689.21,514.24H407.06v84.65h282.15V514.24z M665.51,390.1l10.14,101.57h36.14v129.79
	l-39.52-0.01l0.02,22.58h-22.57l-0.01-22.58H446.55l0.01,22.58h-22.57l-0.01-22.58l-39.49,0.01V491.67h30.66l11.1-101.57H665.51z
	 M905.48,410.72c54.45,203.2-66.14,412.06-269.34,466.51c-203.2,54.45-412.06-66.14-466.51-269.34
	c-31.76-118.52-4.55-242.77,70.66-336.79c3.65-4.56,10.31-5.3,14.87-1.65c4.56,3.65,5.3,10.31,1.65,14.87
	c-71.05,88.81-96.74,206.14-66.74,318.09c51.42,191.91,248.68,305.8,440.59,254.38s305.8-248.68,254.38-440.59
	c-51.42-191.91-248.68-305.8-440.59-254.38c-5.64,1.51-11.45-1.84-12.96-7.48c-1.51-5.64,1.84-11.45,7.48-12.96
	C642.17,86.93,851.03,207.52,905.48,410.72z"/>
<g class="st3">
	<path class="st4" d="M414.43,127.42c202.19-54.18,410.01,65.81,464.18,268c54.18,202.19-65.81,410.01-268,464.18
		s-410.01-65.81-464.18-268c-31.6-117.93-4.53-241.56,70.31-335.11c3.63-4.54,10.26-5.28,14.8-1.64c4.54,3.63,5.28,10.26,1.64,14.8
		c-70.7,88.37-96.26,205.11-66.41,316.5c51.17,190.95,247.44,304.27,438.39,253.11c190.95-51.17,304.27-247.44,253.11-438.39
		C807.11,209.91,610.83,96.59,419.88,147.76c-5.62,1.5-11.39-1.83-12.89-7.44C405.48,134.7,408.81,128.93,414.43,127.42z"/>
	<path class="st4" d="M667.81,547.9c7.27,0,13.16,5.89,13.16,13.16v87.73c0,7.27-5.89,13.16-13.16,13.16
		c-7.27,0-13.16-5.89-13.16-13.16v-87.73C654.65,553.8,660.54,547.9,667.81,547.9z M378.29,547.9c7.27,0,13.16,5.89,13.16,13.16
		v87.73c0,7.27-5.89,13.16-13.16,13.16s-13.16-5.89-13.16-13.16v-87.73C365.13,553.8,371.03,547.9,378.29,547.9z M514.28,451.4
		v-78.96h26.32v78.96h115.44c13.77,0,24.93,5.9,24.93,13.16c0,7.26-11.16,13.16-24.93,13.16H540.6v149.14h-26.32V477.72H390.07
		c-13.77,0-24.93-5.9-24.93-13.16c0-7.26,11.16-13.16,24.93-13.16H514.28z M593.24,517.2v35.09c0,7.27-5.89,13.16-13.16,13.16
		c-7.27,0-13.16-5.89-13.16-13.16V517.2c0-7.27,5.89-13.16,13.16-13.16C587.35,504.04,593.24,509.93,593.24,517.2z M602.01,416.31
		c0,6.27-3.34,12.06-8.77,15.2c-5.43,3.13-12.12,3.13-17.55,0c-5.43-3.13-8.77-8.93-8.77-15.2c0-9.69,7.86-17.54,17.55-17.54
		C594.15,398.76,602.01,406.62,602.01,416.31z M487.96,517.2v35.09c0,7.27-5.89,13.16-13.16,13.16c-7.27,0-13.16-5.89-13.16-13.16
		V517.2c0-7.27,5.89-13.16,13.16-13.16C482.07,504.04,487.96,509.93,487.96,517.2z M487.96,416.31c0,9.69-7.86,17.55-17.55,17.55
		s-17.55-7.86-17.55-17.55c0-9.69,7.86-17.55,17.55-17.55S487.96,406.62,487.96,416.31z M391.45,372.44v228.1h263.2v-228.1H391.45z
		 M391.45,346.12h263.2c14.54,0,26.32,10.8,26.32,24.13v232.49c0,13.33-11.78,24.13-26.32,24.13h-263.2
		c-14.54,0-26.32-10.8-26.32-24.13V370.25C365.13,356.92,376.92,346.12,391.45,346.12z"/>
</g>
<path class="st2" d="M527.11,468.14c6.42,0,11.63,5.2,11.63,11.63s-5.21,11.63-11.63,11.63H387.6c-6.42,0-11.63-5.2-11.63-11.63
	s5.21-11.63,11.63-11.63H527.11z M643.21,398.39h-62.01c-2.14,0-3.88,1.73-3.88,3.88V506.9c0,7.19-2.86,14.09-7.95,19.18
	c-5.09,5.09-11.99,7.95-19.18,7.95H402.94c-1.36-0.01-2.63,0.7-3.33,1.86c-0.62,1.07-0.65,2.39-0.08,3.49l60.61,104.87
	c0.67,1.32,2.01,2.16,3.49,2.17h179.58c2.14,0,3.88-1.73,3.88-3.88V402.26C647.09,400.12,645.35,398.39,643.21,398.39z
	 M643.21,375.14c14.98,0,27.13,12.15,27.13,27.13v240.27c0,14.98-12.15,27.13-27.13,27.13H463.63c-10.17-0.06-19.46-5.76-24.1-14.8
	l-60.77-105.02c-3.97-8.38-3.39-18.2,1.54-26.05c4.93-7.85,13.53-12.64,22.8-12.7h147.26c1.06-0.04,2.05-0.51,2.75-1.3
	c0.7-0.79,1.05-1.83,0.97-2.89V402.26c0-7.19,2.86-14.09,7.95-19.18s11.99-7.95,19.18-7.95H643.21z M883.01,412.44
	c54.84,204.67-66.62,415.04-271.29,469.88c-204.67,54.84-415.04-66.62-469.88-271.29c-31.99-119.38-4.58-244.53,71.17-339.22
	c3.68-4.6,10.38-5.34,14.98-1.66c4.6,3.68,5.34,10.38,1.66,14.98c-71.56,89.45-97.44,207.63-67.23,320.39
	c51.79,193.3,250.48,308.01,443.78,256.21c193.3-51.79,308.01-250.48,256.21-443.78c-51.79-193.3-250.48-308.01-443.78-256.22
	c-5.69,1.52-11.53-1.85-13.05-7.54c-1.52-5.69,1.85-11.53,7.54-13.05C617.79,86.32,828.17,207.78,883.01,412.44z"/>
<g class="st3">
	<path class="st5" d="M889.81,264.09c7.08,0,12.81,5.74,12.81,12.81c0,7.08-5.74,12.81-12.81,12.81S877,283.97,877,276.9
		C877,269.82,882.73,264.09,889.81,264.09z M146.81,264.09c7.07,0,12.81,5.74,12.81,12.81c0,7.08-5.74,12.81-12.81,12.81
		S134,283.97,134,276.9C134,269.82,139.73,264.09,146.81,264.09z M709.4,272.63c1.77,0,3.2,1.43,3.2,3.2v23.49
		c0,1.77-1.43,3.2-3.2,3.2s-3.2-1.43-3.2-3.2v-23.49C706.19,274.06,707.63,272.63,709.4,272.63z M735.02,272.63
		c1.77,0,3.2,1.43,3.2,3.2v23.49c0,1.77-1.43,3.2-3.2,3.2s-3.2-1.43-3.2-3.2v-23.49C731.81,274.06,733.25,272.63,735.02,272.63z
		 M760.64,272.63c1.77,0,3.2,1.43,3.2,3.2v23.49c0,1.77-1.43,3.2-3.2,3.2s-3.2-1.43-3.2-3.2v-23.49
		C757.43,274.06,758.87,272.63,760.64,272.63z M786.26,272.63c1.77,0,3.2,1.43,3.2,3.2v23.49c0,1.77-1.43,3.2-3.2,3.2
		s-3.2-1.43-3.2-3.2v-23.49C783.06,274.06,784.49,272.63,786.26,272.63z M811.88,272.63c1.77,0,3.2,1.43,3.2,3.2v23.49
		c0,1.77-1.43,3.2-3.2,3.2s-3.2-1.43-3.2-3.2v-23.49C808.68,274.06,810.11,272.63,811.88,272.63z M837.5,272.63
		c1.77,0,3.2,1.43,3.2,3.2v23.49c0,1.77-1.43,3.2-3.2,3.2s-3.2-1.43-3.2-3.2v-23.49C834.3,274.06,835.73,272.63,837.5,272.63z
		 M327.22,272.63c1.77,0,3.2,1.43,3.2,3.2v23.49c0,1.77-1.43,3.2-3.2,3.2c-1.77,0-3.2-1.43-3.2-3.2v-23.49
		C324.02,274.06,325.45,272.63,327.22,272.63z M301.6,272.63c1.77,0,3.2,1.43,3.2,3.2v23.49c0,1.77-1.43,3.2-3.2,3.2
		s-3.2-1.43-3.2-3.2v-23.49C298.4,274.06,299.83,272.63,301.6,272.63z M275.98,272.63c1.77,0,3.2,1.43,3.2,3.2v23.49
		c0,1.77-1.43,3.2-3.2,3.2c-1.77,0-3.2-1.43-3.2-3.2v-23.49C272.78,274.06,274.21,272.63,275.98,272.63z M250.36,272.63
		c1.77,0,3.2,1.43,3.2,3.2v23.49c0,1.77-1.43,3.2-3.2,3.2s-3.2-1.43-3.2-3.2v-23.49C247.16,274.06,248.59,272.63,250.36,272.63z
		 M224.74,272.63c1.77,0,3.2,1.43,3.2,3.2v23.49c0,1.77-1.43,3.2-3.2,3.2s-3.2-1.43-3.2-3.2v-23.49
		C221.54,274.06,222.97,272.63,224.74,272.63z M199.12,272.63c1.77,0,3.2,1.43,3.2,3.2v23.49c0,1.77-1.43,3.2-3.2,3.2
		s-3.2-1.43-3.2-3.2v-23.49C195.91,274.06,197.35,272.63,199.12,272.63z"/>
	<path class="st6" d="M150.01,272.63h736.59c1.77,0,3.2,1.43,3.2,3.2c0,1.77-1.43,3.2-3.2,3.2H150.01c-1.77,0-3.2-1.43-3.2-3.2
		C146.81,274.06,148.24,272.63,150.01,272.63z"/>
	<path class="st7" d="M709.4,298.25c1.77,0,3.2,1.43,3.2,3.2v510.28c0,1.77-1.43,3.2-3.2,3.2s-3.2-1.43-3.2-3.2V301.45
		C706.19,299.68,707.63,298.25,709.4,298.25z M735.02,298.25c1.77,0,3.2,1.43,3.2,3.2v510.28c0,1.77-1.43,3.2-3.2,3.2
		s-3.2-1.43-3.2-3.2V301.45C731.81,299.68,733.25,298.25,735.02,298.25z M760.64,298.25c1.77,0,3.2,1.43,3.2,3.2v510.28
		c0,1.77-1.43,3.2-3.2,3.2s-3.2-1.43-3.2-3.2V301.45C757.43,299.68,758.87,298.25,760.64,298.25z M786.26,298.25
		c1.77,0,3.2,1.43,3.2,3.2v510.28c0,1.77-1.43,3.2-3.2,3.2s-3.2-1.43-3.2-3.2V301.45C783.06,299.68,784.49,298.25,786.26,298.25z
		 M811.88,298.25c1.77,0,3.2,1.43,3.2,3.2v510.28c0,1.77-1.43,3.2-3.2,3.2s-3.2-1.43-3.2-3.2V301.45
		C808.68,299.68,810.11,298.25,811.88,298.25z M837.5,298.25c1.77,0,3.2,1.43,3.2,3.2v510.28c0,1.77-1.43,3.2-3.2,3.2
		s-3.2-1.43-3.2-3.2V301.45C834.3,299.68,835.73,298.25,837.5,298.25z M327.22,298.25c1.77,0,3.2,1.43,3.2,3.2v510.28
		c0,1.77-1.43,3.2-3.2,3.2c-1.77,0-3.2-1.43-3.2-3.2V301.45C324.02,299.68,325.45,298.25,327.22,298.25z M301.6,298.25
		c1.77,0,3.2,1.43,3.2,3.2v510.28c0,1.77-1.43,3.2-3.2,3.2s-3.2-1.43-3.2-3.2V301.45C298.4,299.68,299.83,298.25,301.6,298.25z
		 M275.98,298.25c1.77,0,3.2,1.43,3.2,3.2v510.28c0,1.77-1.43,3.2-3.2,3.2c-1.77,0-3.2-1.43-3.2-3.2V301.45
		C272.78,299.68,274.21,298.25,275.98,298.25z M250.36,298.25c1.77,0,3.2,1.43,3.2,3.2v510.28c0,1.77-1.43,3.2-3.2,3.2
		s-3.2-1.43-3.2-3.2V301.45C247.16,299.68,248.59,298.25,250.36,298.25z M224.74,298.25c1.77,0,3.2,1.43,3.2,3.2v510.28
		c0,1.77-1.43,3.2-3.2,3.2s-3.2-1.43-3.2-3.2V301.45C221.54,299.68,222.97,298.25,224.74,298.25z M199.12,298.25
		c1.77,0,3.2,1.43,3.2,3.2v510.28c0,1.77-1.43,3.2-3.2,3.2s-3.2-1.43-3.2-3.2V301.45C195.91,299.68,197.35,298.25,199.12,298.25z"/>
	<path class="st8" d="M729.68,311.06v499.6H712.6v-499.6H729.68z M755.3,311.06v499.6h-17.08v-499.6H755.3z M780.92,311.06v499.6
		h-17.08v-499.6H780.92z M806.54,311.06v499.6h-17.08v-499.6H806.54z M832.16,311.06v499.6h-17.08v-499.6H832.16z M857.78,311.06
		v499.6H840.7v-499.6H857.78z M324.02,311.06v499.6h-17.08v-499.6H324.02z M298.4,311.06v499.6h-17.08v-499.6H298.4z M272.78,311.06
		v499.6H255.7v-499.6H272.78z M247.16,311.06v499.6h-17.08v-499.6H247.16z M221.54,311.06v499.6h-17.08v-499.6H221.54z
		 M195.91,311.06v499.6h-17.08v-499.6H195.91z"/>
</g>
<path class="st9" d="M515.54,376.51c-3.9,0-7.52,2.09-9.37,5.39l-50.83,87.97c-1.95,3.34-1.95,7.52-0.01,10.84
	c1.95,3.35,5.6,5.45,9.41,5.45h101.61c3.81,0,7.46-2.1,9.41-5.45c1.94-3.33,1.94-7.5,0-10.83l-50.81-87.94
	C523,378.61,519.35,376.51,515.54,376.51z M519.12,266.2l0,100.97c5.86,1.06,11.11,4.67,14.18,9.92l50.81,87.94
	c3.68,6.32,3.68,14.21-0.01,20.54c-3.68,6.31-10.49,10.24-17.75,10.24H464.74c-7.26,0-14.07-3.94-17.75-10.24
	c-3.69-6.33-3.69-14.23,0-20.56l50.79-87.91c2.54-4.52,6.77-7.83,11.68-9.34l0-101.57H519.12z M243.01,592.2
	c2.67,0,4.83,2.16,4.83,4.83s-2.16,4.83-4.83,4.83h-54.73c-2.67,0-4.83-2.16-4.83-4.83s2.16-4.83,4.83-4.83H243.01z M841.79,592.2
	c2.67,0,4.83,2.16,4.83,4.83s-2.16,4.83-4.83,4.83h-54.73c-2.67,0-4.83-2.16-4.83-4.83s2.16-4.83,4.83-4.83H841.79z M328.55,773.85
	c1.89,1.89,1.89,4.94,0,6.83l-38.7,38.7c-1.89,1.89-4.94,1.89-6.83,0c-1.89-1.89-1.89-4.94,0-6.83l38.7-38.7
	C323.61,771.97,326.67,771.97,328.55,773.85z M714.4,773.85c1.89-1.89,4.94-1.89,6.83,0l38.7,38.7c1.89,1.89,1.89,4.94,0,6.83
	c-1.89,1.89-4.94,1.89-6.83,0l-38.7-38.7C712.51,778.8,712.51,775.74,714.4,773.85z M511.82,828.81c2.67,0,4.83,2.16,4.83,4.83
	v54.73c0,2.67-2.16,4.83-4.83,4.83s-4.83-2.16-4.83-4.83v-54.73C506.99,830.97,509.15,828.81,511.82,828.81z"/>
<path class="st10" d="M579.42,127.02c2.67,0,4.83,2.16,4.83,4.83s-2.16,4.83-4.83,4.83H447.43c-2.67,0-4.83-2.16-4.83-4.83
	s2.16-4.83,4.83-4.83H579.42z M558.76,176.16h-88.4c-3.74,0-7.33,1.49-9.98,4.13c-2.65,2.65-4.13,6.23-4.13,9.98l0,71.96h116.61
	v-71.96c0-3.74-1.49-7.33-4.13-9.98C566.09,177.65,562.5,176.16,558.76,176.16z M572.87,271.89H456.26l0,32.41l-15.94,5.52
	c-88.62,30.86-148.17,113.34-148.17,206.16c0,120.7,99.55,218.62,222.41,218.62s222.41-97.92,222.41-218.62
	c0-92.83-59.55-175.31-148.18-206.17l-15.93-5.52V271.89z M558.76,166.5c6.3,0,12.35,2.5,16.8,6.96l0.99,1.06
	c3.83,4.33,5.97,9.93,5.97,15.75l0,107.16l9.44,3.26c92.48,32.2,154.67,118.32,154.67,215.29c0,126.07-103.91,228.28-232.07,228.28
	S282.5,642.05,282.5,515.98l0.02-2.91c1.23-95.78,63.09-180.5,154.64-212.38l9.44-3.26l0-107.16c0-6.3,2.5-12.35,6.96-16.8
	c4.46-4.46,10.5-6.96,16.8-6.96H558.76z"/>
</svg>
