<?xml version="1.0" encoding="utf-8"?>
<!-- Generator: Adobe Illustrator 23.0.2, SVG Export Plug-In . SVG Version: 6.00 Build 0)  -->
<svg version="1.1" id="图层_1" xmlns="http://www.w3.org/2000/svg" xmlns:xlink="http://www.w3.org/1999/xlink" x="0px" y="0px"
	 viewBox="0 0 1024 1024" style="enable-background:new 0 0 1024 1024;" xml:space="preserve">
<style type="text/css">
	.st0{fill:#163070;}
</style>
<path class="st0" d="M768.83,322.91v30H597.8v-30H768.83z M648.79,526.67H375.74v100h273.05V526.67z M807.85,216.66
	c46.71,0,84.88,36.61,87.37,82.7l0.13,4.8v262.5c0,6.9-5.6,12.5-12.5,12.5c-6.14,0-11.24-4.42-12.3-10.25l-0.2-2.25v-262.5
	c0-33.14-25.79-60.25-58.39-62.37l-4.11-0.13H216.71c-33.14,0-60.25,25.79-62.37,58.39l-0.13,4.11v262.5
	c0,33.14,25.79,60.25,58.39,62.37l4.11,0.13h134.03l0.01-127.5h323.06l-0.02,127.5h134.06c6.9,0,12.5,5.6,12.5,12.5
	c0,6.14-4.42,11.24-10.25,12.3l-2.25,0.2H216.71c-46.71,0-84.88-36.61-87.37-82.7l-0.13-4.8v-262.5c0-46.71,36.61-84.88,82.7-87.37
	l4.8-0.13H807.85z M762.33,679.17c6.9,0,12.5,5.6,12.5,12.5v125c0,6.9-5.6,12.5-12.5,12.5c-6.9,0-12.5-5.6-12.5-12.5v-125
	C749.83,684.77,755.43,679.17,762.33,679.17z M515.28,679.17c6.9,0,12.5,5.6,12.5,12.5v125c0,6.9-5.6,12.5-12.5,12.5
	c-6.9,0-12.5-5.6-12.5-12.5v-125C502.78,684.77,508.38,679.17,515.28,679.17z M268.23,679.17c6.9,0,12.5,5.6,12.5,12.5v125
	c0,6.9-5.6,12.5-12.5,12.5s-12.5-5.6-12.5-12.5v-125C255.73,684.77,261.33,679.17,268.23,679.17z"/>
</svg>
