<?xml version="1.0" encoding="utf-8"?>
<!-- Generator: Adobe Illustrator 23.0.2, SVG Export Plug-In . SVG Version: 6.00 Build 0)  -->
<svg version="1.1" id="图层_1" xmlns="http://www.w3.org/2000/svg" xmlns:xlink="http://www.w3.org/1999/xlink" x="0px" y="0px"
	 viewBox="0 0 1024 1024" style="enable-background:new 0 0 1024 1024;" xml:space="preserve">
<style type="text/css">
	.st0{display:none;fill:#A3A3A3;}
	.st1{fill:#A3A3A3;}
</style>
<path class="st0" d="M662.52,373.35c6.87,0,12.44,5.57,12.44,12.44c0,6.87-5.57,12.44-12.44,12.44h-273.7
	c-6.87,0-12.44-5.57-12.44-12.44c0-6.87,5.57-12.44,12.44-12.44H662.52z M650.08,448h-62.2v182.47c20.73,0,41.47,3.6,62.2,10.77V448
	z M463.46,448h-62.2v193.84c23.08-7.56,43.79-11.37,62.2-11.37V448z M562.99,448h-74.64v184.82c12.43,2.36,24.72,6.51,36.82,12.42
	c11.25-6.32,23.89-10.59,37.83-12.86V448z M650.08,423.12c13.74,0,24.88,11.14,24.88,24.88v207.35c0,0.88-0.04,1.64-0.13,2.31
	c0.67,4.49-1.16,8.98-4.76,11.73c-3.61,2.75-8.42,3.32-12.57,1.48c-23.46-10.38-46.63-15.53-69.63-15.53
	c-22.45,0-40.81,4.89-55.34,14.51c-3.84,2.54-8.76,2.76-12.81,0.56c-18.57-10.09-37.28-15.08-56.26-15.08
	c-19.41,0-42.83,5.21-70.17,15.76c-4.13,1.6-8.81,0.87-12.26-1.9c-3.46-2.77-5.18-7.17-4.52-11.56c-0.09-0.76-0.14-1.53-0.13-2.31
	V448c0-13.74,11.14-24.88,24.88-24.88H650.08z M885.82,412.62c54.88,204.8-66.66,415.3-271.46,470.18
	c-204.8,54.87-415.3-66.66-470.18-271.46c-32.01-119.46-4.59-244.68,71.21-339.43c3.68-4.6,10.39-5.34,14.99-1.67
	c4.6,3.68,5.34,10.39,1.67,14.99c-71.61,89.51-97.5,207.76-67.27,320.59c51.83,193.42,250.64,308.2,444.06,256.38
	s308.2-250.64,256.38-444.06c-51.83-193.42-250.64-308.2-444.06-256.38c-5.69,1.52-11.54-1.85-13.06-7.54
	c-1.52-5.69,1.85-11.54,7.54-13.06C620.44,86.29,830.94,207.83,885.82,412.62z"/>
<path class="st1" d="M660.43,353.7c6.85,0,12.4,4.76,12.4,10.63c0,5.87-5.55,10.63-12.4,10.63H387.56c-6.85,0-12.4-4.76-12.4-10.63
	c0-5.87,5.55-10.63,12.4-10.63H660.43z M460.21,416l-42.52,0c-11.74,0-21.26,9.52-21.26,21.26v173.06
	c0,11.74,9.52,21.26,21.26,21.26l42.52-0.02V416z M630.3,416l-42.52,0v215.58l42.52,0.02c11.74,0,21.26-9.52,21.26-21.26V437.26
	C651.57,425.52,642.05,416,630.3,416z M566.52,417.49h-85.05v255.14h85.05V417.49z M651.57,396.22c11.74,0,21.26,9.52,21.26,21.26
	v212.62c0,11.74-9.52,21.26-21.26,21.26h-63.79v42.52H460.21v-42.52h-63.79c-11.74,0-21.26-9.52-21.26-21.26V417.49
	c0-11.74,9.52-21.26,21.26-21.26H651.57z M883.04,414.11c54.71,204.17-66.45,414.02-270.62,468.73s-414.02-66.45-468.73-270.62
	c-31.91-119.09-4.57-243.93,71-338.39c3.67-4.58,10.36-5.33,14.94-1.66c4.58,3.67,5.33,10.36,1.66,14.94
	c-71.39,89.23-97.2,207.12-67.06,319.6c51.67,192.82,249.87,307.25,442.69,255.59S914.17,612.44,862.5,419.61
	c-51.67-192.82-249.87-307.25-442.69-255.59c-5.67,1.52-11.5-1.85-13.02-7.52c-1.52-5.67,1.85-11.5,7.52-13.02
	C618.48,88.78,828.33,209.94,883.04,414.11z"/>
</svg>
