<?xml version="1.0" encoding="utf-8"?>
<!-- Generator: Adobe Illustrator 23.0.2, SVG Export Plug-In . SVG Version: 6.00 Build 0)  -->
<svg version="1.1" id="图层_1" xmlns="http://www.w3.org/2000/svg" xmlns:xlink="http://www.w3.org/1999/xlink" x="0px" y="0px"
	 viewBox="0 0 1024 1024" style="enable-background:new 0 0 1024 1024;" xml:space="preserve">
<style type="text/css">
	.st0{fill:#163070;}
</style>
<path class="st0" d="M683.53,147.25c-13.54,0-24.71,10.19-26.23,23.33l-0.18,3.08l-0.03,267.28h52.82l0.03-267.28
	c0-13.54-10.19-24.71-23.33-26.23L683.53,147.25z M709.91,467.35H657.1l0.02,76.03h52.82L709.91,467.35z M217.32,553.6l-3.56,0.01
	c-9.6,0.61-21.27,6.13-34.74,16.88l-0.63,0.5l6.09,3.16c16.14,8.05,28.26,12.19,35.82,12.54l2.15-0.01
	c6.57-0.42,14.99-5.6,24.77-16.06l2.25-2.55l-3.23-2.39c-12.33-8.79-23.19-12.66-32.49-12.07L217.32,553.6z M212.07,527.26
	c20.71-1.32,42.23,8.81,64.77,29.34c5.05,4.6,5.76,12.29,1.63,17.74c-18.36,24.23-36.1,37.53-54.34,38.69
	c-16.97,1.08-41.34-8.41-75.05-28.1c-7.53-4.4-8.81-14.77-2.56-20.86C170.14,541.07,191.76,528.55,212.07,527.26z M403.78,565.35
	l-1.48,0.31c-27.23,5.82-45.33,15.28-54.62,27.73c-8.6,11.53-12.75,29.77-11.89,54.77l0.14,3.03l5-1.97
	c30.63-12.42,50.4-23.73,58.79-33.07l1.62-1.97c6.15-8.24,7.65-22.73,3.57-43.53L403.78,565.35z M411.44,537.14
	c6.57-1.03,12.87,2.99,14.72,9.38c10.73,37.11,10.13,64.97-3.66,83.45c-12.79,17.14-43.65,33.93-93.71,52.19
	c-8,2.92-16.62-2.38-17.63-10.84c-4.98-41.57-0.22-72.86,15.35-93.72C342.12,556.68,370.59,543.52,411.44,537.14z M239.8,667.68
	c24.44,1.72,40.35,13.74,43.72,34.98l-26.08,4.14c-1.26-7.96-6.42-11.86-19.49-12.77L239.8,667.68z M245.57,729.33l13.13,22.91
	c-11.51,6.6-26.35,10.69-43.43,12.36l-2.57-26.28C226.34,736.98,237.67,733.86,245.57,729.33z M172.64,739.97l2.46,26.29
	c-15.42,1.45-21.94,4.63-24.24,10.13l-24.36-10.19C133.43,749.61,148.54,742.23,172.64,739.97z M154.42,797.24
	c5.69,3.79,15.96,5.72,31.75,6.15l-0.71,26.4c-20.47-0.55-34.65-3.21-45.69-10.57L154.42,797.24z M410.25,803.5v26.41H385.1V803.5
	H410.25z M345.49,803.5v26.41h-39.61V803.5H345.49z M266.26,803.5v26.41h-39.61V803.5H266.26z M683.53,120.84
	c29.17,0,52.82,23.65,52.82,52.82v402.16h-23.9l-3.27-0.41l-1.62-0.31l-1.65-0.1h-53.98l-1.55,0.09l-1.53,0.27l-143.45,34.41
	c-3.58,0.86-6.61,3.17-8.4,6.31l-0.92,1.98l-5.27,14.39c-1.41,3.84,0.57,8.09,4.4,9.49l1.25,0.34l1.29,0.11h351.94
	c4.18,0,7.56-3.39,7.56-7.56l-0.11-1.28l-0.32-1.24l-5.09-14.4c-1.17-3.32-3.61-6-6.72-7.5l-2.45-0.89l-29.01-7.42l6.54-25.58
	l29.01,7.42c11.52,2.95,21.04,10.89,26.04,21.53l1.5,3.64l5.09,14.4c1.29,3.64,1.94,7.47,1.94,11.32c0,13.46-7.83,25.09-19.18,30.59
	l30.15,162.39l-25.96,4.82l-30.44-163.84h-29.37l11.33,170.24l-26.35,1.75l-11.44-172h-30.26l0,171.12h-26.41l0-171.12h-35.52
	l0,171.12H663.8l0-171.12h-35.52l0,171.12h-26.41l0-171.12h-30.29l-11.41,172l-26.35-1.75l11.3-170.24h-29.37l-30.22,163.83
	l-25.97-4.79l29.57-160.14c-1.02-0.27-2.02-0.58-3.02-0.95c-16.44-6.02-25.38-23.46-21.14-40.07l1.02-3.31l5.27-14.39
	c4.11-11.21,13.02-19.9,24.16-23.79l3.79-1.11l131.48-31.54l0-378.89C630.72,144.49,654.36,120.84,683.53,120.84z"/>
</svg>
