<?xml version="1.0" encoding="utf-8"?>
<!-- Generator: Adobe Illustrator 23.0.2, SVG Export Plug-In . SVG Version: 6.00 Build 0)  -->
<svg version="1.1" id="图层_1" xmlns="http://www.w3.org/2000/svg" xmlns:xlink="http://www.w3.org/1999/xlink" x="0px" y="0px"
	 viewBox="0 0 1024 1024" style="enable-background:new 0 0 1024 1024;" xml:space="preserve">
<style type="text/css">
	.st0{display:none;fill:#163070;}
	.st1{fill:#163070;}
</style>
<path class="st0" d="M683.53,147.25c-13.54,0-24.71,10.19-26.23,23.33l-0.18,3.08l-0.03,267.28h52.82l0.03-267.28
	c0-13.54-10.19-24.71-23.33-26.23L683.53,147.25z M709.91,467.35H657.1l0.02,76.03h52.82L709.91,467.35z M217.32,553.6l-3.56,0.01
	c-9.6,0.61-21.27,6.13-34.74,16.88l-0.63,0.5l6.09,3.16c16.14,8.05,28.26,12.19,35.82,12.54l2.15-0.01
	c6.57-0.42,14.99-5.6,24.77-16.06l2.25-2.55l-3.23-2.39c-12.33-8.79-23.19-12.66-32.49-12.07L217.32,553.6z M212.07,527.26
	c20.71-1.32,42.23,8.81,64.77,29.34c5.05,4.6,5.76,12.29,1.63,17.74c-18.36,24.23-36.1,37.53-54.34,38.69
	c-16.97,1.08-41.34-8.41-75.05-28.1c-7.53-4.4-8.81-14.77-2.56-20.86C170.14,541.07,191.76,528.55,212.07,527.26z M403.78,565.35
	l-1.48,0.31c-27.23,5.82-45.33,15.28-54.62,27.73c-8.6,11.53-12.75,29.77-11.89,54.77l0.14,3.03l5-1.97
	c30.63-12.42,50.4-23.73,58.79-33.07l1.62-1.97c6.15-8.24,7.65-22.73,3.57-43.53L403.78,565.35z M411.44,537.14
	c6.57-1.03,12.87,2.99,14.72,9.38c10.73,37.11,10.13,64.97-3.66,83.45c-12.79,17.14-43.65,33.93-93.71,52.19
	c-8,2.92-16.62-2.38-17.63-10.84c-4.98-41.57-0.22-72.86,15.35-93.72C342.12,556.68,370.59,543.52,411.44,537.14z M239.8,667.68
	c24.44,1.72,40.35,13.74,43.72,34.98l-26.08,4.14c-1.26-7.96-6.42-11.86-19.49-12.77L239.8,667.68z M245.57,729.33l13.13,22.91
	c-11.51,6.6-26.35,10.69-43.43,12.36l-2.57-26.28C226.34,736.98,237.67,733.86,245.57,729.33z M172.64,739.97l2.46,26.29
	c-15.42,1.45-21.94,4.63-24.24,10.13l-24.36-10.19C133.43,749.61,148.54,742.23,172.64,739.97z M154.42,797.24
	c5.69,3.79,15.96,5.72,31.75,6.15l-0.71,26.4c-20.47-0.55-34.65-3.21-45.69-10.57L154.42,797.24z M410.25,803.5v26.41H385.1V803.5
	H410.25z M345.49,803.5v26.41h-39.61V803.5H345.49z M266.26,803.5v26.41h-39.61V803.5H266.26z M683.53,120.84
	c29.17,0,52.82,23.65,52.82,52.82v402.16h-23.9l-3.27-0.41l-1.62-0.31l-1.65-0.1h-53.98l-1.55,0.09l-1.53,0.27l-143.45,34.41
	c-3.58,0.86-6.61,3.17-8.4,6.31l-0.92,1.98l-5.27,14.39c-1.41,3.84,0.57,8.09,4.4,9.49l1.25,0.34l1.29,0.11h351.94
	c4.18,0,7.56-3.39,7.56-7.56l-0.11-1.28l-0.32-1.24l-5.09-14.4c-1.17-3.32-3.61-6-6.72-7.5l-2.45-0.89l-29.01-7.42l6.54-25.58
	l29.01,7.42c11.52,2.95,21.04,10.89,26.04,21.53l1.5,3.64l5.09,14.4c1.29,3.64,1.94,7.47,1.94,11.32c0,13.46-7.83,25.09-19.18,30.59
	l30.15,162.39l-25.96,4.82l-30.44-163.84h-29.37l11.33,170.24l-26.35,1.75l-11.44-172h-30.26l0,171.12h-26.41l0-171.12h-35.52
	l0,171.12H663.8l0-171.12h-35.52l0,171.12h-26.41l0-171.12h-30.29l-11.41,172l-26.35-1.75l11.3-170.24h-29.37l-30.22,163.83
	l-25.97-4.79l29.57-160.14c-1.02-0.27-2.02-0.58-3.02-0.95c-16.44-6.02-25.38-23.46-21.14-40.07l1.02-3.31l5.27-14.39
	c4.11-11.21,13.02-19.9,24.16-23.79l3.79-1.11l131.48-31.54l0-378.89C630.72,144.49,654.36,120.84,683.53,120.84z"/>
<path class="st1" d="M553.67,522.28c4.99-4.42,12.57-4.78,18-0.51l1.85,1.74c4.42,4.99,4.78,12.57,0.51,18l-45.28,57.54l68.73,0.02
	l2.53,0.23c6.56,1.19,11.53,6.93,11.53,13.83c0,7.76-6.29,14.06-14.06,14.06l-83.99-0.02v62.97l83.99,0.02l2.53,0.23
	c6.56,1.19,11.53,6.93,11.53,13.83c0,7.76-6.29,14.06-14.06,14.06l-83.99-0.02l0.01,49.25c0,7.76-6.29,14.06-14.06,14.06l-0.62-0.08
	l-0.62,0.08c-6.9,0-12.64-4.97-13.83-11.53l-0.23-2.53l-0.02-49.25l-83.97,0.02c-7.76,0-14.06-6.29-14.06-14.06
	c0-6.9,4.97-12.64,11.53-13.83l2.53-0.23l83.97-0.02v-62.97l-83.97,0.02c-7.76,0-14.06-6.29-14.06-14.06
	c0-6.9,4.97-12.64,11.53-13.83l2.53-0.23l68.7-0.02l-45.26-57.54c-4.27-5.42-3.91-13.01,0.51-18l1.85-1.74
	c5.42-4.27,13.01-3.91,18,0.51l1.74,1.85l53.13,67.53l53.13-67.53L553.67,522.28z M511.61,154.45c32.04,0,60.58,10.64,85.12,31.6
	l4.84,4.33l6.77-1.8c60.58-15.6,105.63-6.79,132.8,28l3.17,4.3c29.05,41.64,7.54,96.41-58.96,163.84l-6.37,6.36l-19.72-20.03
	c62.76-61.77,81.39-106.28,61.99-134.08c-19.68-28.21-56.06-35.35-112.04-19.52l-7.41,2.2l-8.26,2.55l-6-6.22
	c-21.67-22.44-46.72-33.42-75.94-33.42c-27.13,0-51.69,9.48-74.15,28.82l-5.57,5.04l-6.25,5.93l-8.12-2.88
	c-56.46-20.04-91.19-13.77-108.82,16.53c-17.1,29.38-3.07,72.33,45.91,129.34l5.59,6.39l8.93,10.05l-9.65,9.37
	C223.53,523.15,156.14,637.37,156.14,732.87c0,92.05,27.22,148.06,80.84,170.98c1.16,0.5,2.39,0.84,3.64,1l1.89,0.13h530.07
	c2.37,0,4.7-0.6,6.78-1.74c58.57-32.24,87.73-88.31,87.73-170.37c0-59.4-33.61-133.31-101.47-221.11l-7.68-9.81l22.03-17.46
	c76.58,96.62,115.23,179.18,115.23,248.38c0,91.79-34.18,157.51-102.28,195c-4.98,2.74-10.46,4.44-16.09,5.01l-4.25,0.21H242.5
	c-5.7,0-11.34-1.16-16.58-3.4c-65.54-28.02-97.9-94.62-97.9-196.83c0-99.67,64.24-213.4,191.74-341.99l10.63-10.64l-2.81-3.33
	c-49.66-60.01-65.9-110.34-45.6-150.61l2.41-4.43c23.83-40.94,67.83-51.51,128.28-33.53l6.21,1.94l5.49-4.54
	c24.12-19.15,50.86-29.59,79.92-31.09L511.61,154.45z"/>
</svg>
