<?xml version="1.0" encoding="utf-8"?>
<!-- Generator: Adobe Illustrator 23.0.2, SVG Export Plug-In . SVG Version: 6.00 Build 0)  -->
<svg version="1.1" id="图层_1" xmlns="http://www.w3.org/2000/svg" xmlns:xlink="http://www.w3.org/1999/xlink" x="0px" y="0px"
	 viewBox="0 0 1024 1024" style="enable-background:new 0 0 1024 1024;" xml:space="preserve">
<style type="text/css">
	.st0{fill-rule:evenodd;clip-rule:evenodd;fill:#F0F0F0;}
	.st1{fill-rule:evenodd;clip-rule:evenodd;fill:#FFFFFF;}
	.st2{fill:#E0E0E0;}
	.st3{fill-rule:evenodd;clip-rule:evenodd;fill:#CCCCCC;}
</style>
<g>
	<circle class="st0" cx="510.37" cy="513.39" r="382.35"/>
	<circle class="st1" cx="512" cy="515.01" r="136.67"/>
	<path class="st2" d="M512,381.6c-73.68,0-133.42,59.73-133.42,133.42c0,73.68,59.73,133.42,133.42,133.42
		c73.68,0,133.42-59.73,133.42-133.42C645.41,441.33,585.68,381.6,512,381.6z M512,378.34c75.48,0,136.67,61.19,136.67,136.67
		c0,75.48-61.19,136.67-136.67,136.67s-136.67-61.19-136.67-136.67C375.33,439.53,436.52,378.34,512,378.34z"/>
	<path class="st3" d="M512,244.93c5.39,0,9.76,4.37,9.76,9.76s-4.37,9.76-9.76,9.76c-5.39,0-9.76-4.37-9.76-9.76
		S506.61,244.93,512,244.93z M251.68,505.25c5.39,0,9.76,4.37,9.76,9.76s-4.37,9.76-9.76,9.76c-5.39,0-9.76-4.37-9.76-9.76
		S246.29,505.25,251.68,505.25z M772.32,505.25c5.39,0,9.76,4.37,9.76,9.76s-4.37,9.76-9.76,9.76c-5.39,0-9.76-4.37-9.76-9.76
		S766.93,505.25,772.32,505.25z M512,762.32c5.39,0,9.76,4.37,9.76,9.76s-4.37,9.76-9.76,9.76c-5.39,0-9.76-4.37-9.76-9.76
		S506.61,762.32,512,762.32z"/>
</g>
</svg>
