<?xml version="1.0" encoding="utf-8"?>
<!-- Generator: Adobe Illustrator 23.0.2, SVG Export Plug-In . SVG Version: 6.00 Build 0)  -->
<svg version="1.1" id="图层_1" xmlns="http://www.w3.org/2000/svg" xmlns:xlink="http://www.w3.org/1999/xlink" x="0px" y="0px"
	 viewBox="0 0 1024 1024" style="enable-background:new 0 0 1024 1024;" xml:space="preserve">
<style type="text/css">
	.st0{fill:#163070;}
</style>
<path class="st0" d="M737.3,205.11c-10.93,0-19.63,8.57-19.63,18.95S726.37,243,737.3,243c10.93,0,19.63-8.57,19.63-18.95
	S748.23,205.11,737.3,205.11z M284.22,205.11c-10.93,0-19.63,8.57-19.63,18.95s8.7,18.95,19.63,18.95s19.63-8.57,19.63-18.95
	S295.15,205.11,284.22,205.11z M670.37,523.21c42.54,0,77.3,33.29,79.64,75.24l0.13,4.53h-25.67c0-28.58-22.16-51.98-50.23-53.96
	l-3.86-0.14H351.15c-29.88,0-54.1,24.22-54.1,54.1c0,28.58,22.16,51.98,50.23,53.96l3.86,0.14h319.22v25.67H351.15
	c-44.06,0-79.77-35.71-79.77-79.77c0-42.54,33.29-77.3,75.24-79.64l4.53-0.13H670.37z M818.83,629v82.52l21.17,0.02
	c13.17,0,24.02-9.91,25.5-22.68l0.17-2.99V654.7c0-13.17-9.91-24.02-22.68-25.5l-2.99-0.17L818.83,629z M202.66,629l-25.67,0.02
	c-13.17,0-24.02,9.91-25.5,22.68l-0.17,2.99v31.17c0,13.17,9.91,24.02,22.68,25.5l2.99,0.17l25.67-0.02V629z M789.67,511.25
	C670.7,360.89,452.8,332.19,298.76,448.13c-17.55,13.21-33.83,28.02-48.64,44.24l-21.04,23.01v253.23h563.33V514.79L789.67,511.25z
	 M737.3,179.43c25.02,0,45.31,19.98,45.31,44.62c0,24.64-20.29,44.62-45.31,44.62c-2.31,0-4.57-0.17-6.79-0.5l-56.27,119.39
	c54.04,25.47,102.85,64.1,141.28,115.15c1.67,2.23,2.58,4.93,2.58,7.72l-0.02,92.88l21.91,0.02c28.36,0,51.35,22.99,51.35,51.35
	v31.17c0,28.36-22.99,51.35-51.35,51.35l-21.91-0.02l0.02,44.27c0,6.3-4.54,11.54-10.53,12.63l-2.31,0.21H216.25
	c-7.09,0-12.84-5.75-12.84-12.84l-0.01-44.27l-26.42,0.02c-28.36,0-51.35-22.99-51.35-51.35V654.7c0-28.36,22.99-51.35,51.35-51.35
	l26.42-0.02l0.01-92.88c0-2.4,0.67-4.74,1.92-6.75l1.43-1.9l24.39-26.72c15.88-17.4,33.34-33.28,52.16-47.45l7.23-5.31
	c18.68-13.4,38.19-24.86,58.28-34.42l-59.42-119.5c-1.7,0.19-3.44,0.29-5.2,0.29c-25.02,0-45.31-19.98-45.31-44.62
	c0-24.64,20.29-44.62,45.31-44.62c25.02,0,45.31,19.98,45.31,44.62c0,13.81-6.37,26.15-16.37,34.34l59.25,119.24
	c90.26-35.66,189.95-34.75,278.24-0.23l56.57-119.99c-9.34-8.17-15.22-20.09-15.22-33.36C692,199.41,712.28,179.43,737.3,179.43z"/>
</svg>
