<?xml version="1.0" encoding="utf-8"?>
<!-- Generator: Adobe Illustrator 23.0.2, SVG Export Plug-In . SVG Version: 6.00 Build 0)  -->
<svg version="1.1" id="图层_1" xmlns="http://www.w3.org/2000/svg" xmlns:xlink="http://www.w3.org/1999/xlink" x="0px" y="0px"
	 viewBox="0 0 1024 1024" style="enable-background:new 0 0 1024 1024;" xml:space="preserve">
<style type="text/css">
	.st0{display:none;fill:#163070;}
	.st1{display:none;fill:#EBB682;}
	.st2{display:none;fill-rule:evenodd;clip-rule:evenodd;fill:#EBB682;}
	.st3{fill-rule:evenodd;clip-rule:evenodd;fill:#163070;}
</style>
<path class="st0" d="M527.01,127.99c11.34,0,20.56,9.18,20.56,20.56v41.12c0,11.38-9.18,20.56-20.56,20.56
	c-11.34,0-20.56-9.18-20.56-20.56v-41.12C506.45,137.17,515.67,127.99,527.01,127.99z M225.33,220.8
	c8.42-7.59,21.42-6.94,29.04,1.52l27.52,30.56c7.62,8.46,6.9,21.45-1.52,29.04c-8.46,7.62-21.42,6.94-29.04-1.52l-27.52-30.56
	C216.19,241.38,216.91,228.39,225.33,220.8z M801.27,220.8c8.42,7.59,9.14,20.58,1.52,29.04l-27.52,30.56
	c-7.62,8.46-20.58,9.14-29.04,1.52c-8.42-7.59-9.14-20.58-1.52-29.04l27.52-30.56C779.85,213.86,792.85,213.22,801.27,220.8z
	 M191.16,477.54c11.38,0,20.56,9.23,20.56,20.56c0,11.38-9.18,20.56-20.56,20.56h-41.12c-11.38,0-20.56-9.23-20.56-20.56
	c0-11.34,9.18-20.56,20.56-20.56H191.16z M876.56,477.54c11.38,0,20.56,9.23,20.56,20.56c0,11.34-9.18,20.56-20.56,20.56h-41.12
	c-11.38,0-20.56-9.18-20.56-20.56c0-11.34,9.18-20.56,20.56-20.56H876.56z M516.58,306.19c104.02,0,188.34,84.32,188.34,188.34
	c0,7.57-6.14,13.71-13.71,13.71s-13.71-6.14-13.71-13.71c0-88.87-72.05-160.92-160.92-160.92c-88.87,0-160.92,72.05-160.92,160.92
	c0,88.87,72.05,160.92,160.92,160.92c47.05,0,90.79-20.29,121.18-55.03c4.98-5.7,13.64-6.28,19.34-1.29
	c5.7,4.98,6.28,13.64,1.29,19.34c-35.54,40.63-86.77,64.4-141.81,64.4c-104.02,0-188.34-84.32-188.34-188.34
	C328.24,390.52,412.56,306.19,516.58,306.19z M280.37,714.29c8.42,7.59,9.14,20.58,1.52,29.04l-27.52,30.56
	c-7.62,8.46-20.58,9.14-29.04,1.52c-8.42-7.59-9.14-20.58-1.52-29.04l27.52-30.56C258.94,707.35,271.94,706.7,280.37,714.29z
	 M746.24,741.71c8.42-7.59,21.42-6.94,29.04,1.52l27.52,30.56c7.62,8.46,6.9,21.45-1.52,29.04c-8.46,7.62-21.42,6.94-29.04-1.52
	l-27.52-30.56C737.1,762.29,737.81,749.29,746.24,741.71z M527.01,785.98c11.34,0,20.56,12.3,20.56,27.42v54.83
	c0,15.18-9.23,27.42-20.56,27.42s-20.56-12.24-20.56-27.42v-54.83C506.45,798.28,515.67,785.98,527.01,785.98z"/>
<path class="st1" d="M526.85,127.99c11.34,0,20.57,9.18,20.57,20.57v41.14c0,11.39-9.18,20.57-20.57,20.57
	c-11.34,0-20.57-9.18-20.57-20.57v-41.14C506.28,137.17,515.51,127.99,526.85,127.99z M225.04,220.84
	c8.43-7.59,21.43-6.94,29.05,1.52l27.53,30.57c7.62,8.46,6.91,21.46-1.52,29.05c-8.46,7.62-21.43,6.94-29.05-1.52l-27.53-30.57
	C215.9,241.43,216.61,228.43,225.04,220.84z M801.23,220.84c8.43,7.59,9.14,20.59,1.52,29.05l-27.53,30.57
	c-7.62,8.46-20.59,9.14-29.05,1.52c-8.43-7.59-9.14-20.59-1.52-29.05l27.53-30.57C779.8,213.9,792.8,213.25,801.23,220.84z
	 M190.85,477.7c11.39,0,20.57,9.23,20.57,20.57c0,11.39-9.18,20.57-20.57,20.57h-41.14c-11.39,0-20.57-9.23-20.57-20.57
	c0-11.34,9.18-20.57,20.57-20.57H190.85z M876.55,477.7c11.39,0,20.57,9.23,20.57,20.57c0,11.34-9.18,20.57-20.57,20.57h-41.14
	c-11.39,0-20.57-9.18-20.57-20.57c0-11.34,9.18-20.57,20.57-20.57H876.55z M516.41,306.27c104.06,0,188.42,84.36,188.42,188.42
	c0,7.57-6.14,13.71-13.71,13.71c-7.57,0-13.71-6.14-13.71-13.71c0-88.91-72.08-160.99-160.99-160.99
	c-88.91,0-160.99,72.08-160.99,160.99c0,88.91,72.08,160.99,160.99,160.99c47.08,0,90.83-20.3,121.23-55.06
	c4.99-5.7,13.65-6.28,19.35-1.29c5.7,4.99,6.28,13.65,1.29,19.35c-35.55,40.65-86.8,64.43-141.88,64.43
	c-104.06,0-188.42-84.36-188.42-188.42C327.99,390.63,412.35,306.27,516.41,306.27z M280.1,714.55c8.43,7.59,9.14,20.59,1.52,29.05
	l-27.53,30.57c-7.62,8.46-20.59,9.14-29.05,1.52c-8.43-7.59-9.14-20.59-1.52-29.05l27.53-30.57
	C258.66,707.61,271.67,706.96,280.1,714.55z M746.17,741.97c8.43-7.59,21.43-6.94,29.05,1.52l27.53,30.57
	c7.62,8.46,6.91,21.46-1.52,29.05c-8.46,7.62-21.43,6.94-29.05-1.52l-27.53-30.57C737.03,762.56,737.74,749.56,746.17,741.97z
	 M526.85,786.26c11.34,0,20.57,12.31,20.57,27.43v54.86c0,15.18-9.23,27.43-20.57,27.43s-20.57-12.24-20.57-27.43v-54.86
	C506.28,798.57,515.51,786.26,526.85,786.26z"/>
<path class="st1" d="M672.48,183.66l-6.44,11.82c-8.64,15.74-21.56,28.7-37.23,37.23l-11.8,6.43l11.85,6.49
	c13.99,7.73,25.71,18.75,34.17,32.1l3.02,5.11l6.43,11.77l6.47-11.79c7.68-13.99,18.74-25.79,32.11-34.22l5.12-3l11.77-6.46
	l-11.79-6.44c-13.99-7.68-25.79-18.74-34.22-32.11l-3-5.12L672.48,183.66z M672.5,127.97l29.89,54.7
	c6.08,11.18,15.34,20.41,26.6,26.59l54.68,29.88l-54.7,29.89c-11.17,6.08-20.41,15.34-26.59,26.6l-29.88,54.68l-29.87-54.66
	c-6.14-11.19-15.36-20.41-26.63-26.64l-54.68-29.88l54.7-29.89c11.18-6.08,20.41-15.34,26.59-26.6L672.5,127.97z M783.45,382.71
	l-1.96,3.29c-5.62,8.52-13.16,15.5-21.99,20.24l1.12-0.67l3.3,1.99c5.68,3.75,10.68,8.35,14.78,13.61l2.91,4.07l1.87,3.17l1.99-3.28
	c4.68-7.1,10.7-13.13,17.68-17.68l3.16-1.89l-3.27-1.97c-7.1-4.68-13.13-10.7-17.68-17.68L783.45,382.71z M783.48,327.18
	l22.81,41.69c3.11,5.79,7.96,10.62,13.99,13.94l41.59,22.75l-41.69,22.81c-5.79,3.11-10.62,7.96-13.94,13.99l-22.75,41.59
	l-22.81-41.69c-3.11-5.79-7.96-10.62-13.99-13.94l-41.59-22.75l41.69-22.81c5.79-3.11,10.62-7.96,13.94-13.99L783.48,327.18z
	 M440.39,215.82c8.97,8.97,12.1,22.31,7.94,34.19c-10.41,30.32-15.66,61.73-15.66,93.47c0,158.49,128.91,287.43,287.43,287.43
	c31.41,0,62.96-5.3,93.46-15.65c12.04-4.15,25.23-1.04,34.21,7.93c8.85,8.85,11.87,21.92,8.03,34.61
	c-7.22,20.72-16.3,40.62-27.11,59.5c-3.66,6.4-11.82,8.62-18.22,4.95c-6.4-3.66-8.62-11.82-4.95-18.22
	c9.99-17.46,18.39-35.86,24.9-54.48c0.88-2.91,0.23-5.72-1.52-7.47c-1.78-1.78-4.28-2.37-6.68-1.55
	c-33.3,11.31-67.75,17.09-102.1,17.09c-173.28,0-314.14-140.9-314.14-314.14c0-34.7,5.74-69.04,17.13-102.22
	c0.78-2.22,0.17-4.8-1.48-6.46c-1.85-1.81-4.36-2.38-6.69-1.56C283.29,279.1,194.91,403.2,194.91,542.19
	c0,180.17,146.55,326.72,326.72,326.72c68.92,0,135.43-21.76,190.84-61.66c5.99-4.31,14.33-2.95,18.64,3.03
	c4.31,5.99,2.95,14.33-3.03,18.64c-59.92,43.15-131.89,66.69-206.45,66.69c-194.92,0-353.43-158.51-353.43-353.43
	c0-150.37,95.58-284.58,237.92-334.16C418.05,203.85,431.21,206.84,440.39,215.82z"/>
<path class="st2" d="M704.79,237.39H345.76v230.8h359.03V237.39z M717.61,211.74c7.08,0,12.82,5.74,12.82,12.82v256.45
	c0,7.08-5.74,12.82-12.82,12.82H332.94c-7.08,0-12.82-5.74-12.82-12.82V224.57c0-7.08,5.74-12.82,12.82-12.82H717.61z
	 M749.67,638.09c7.08,0,12.82,5.74,12.82,12.82c0,7.08-5.74,12.82-12.82,12.82H615.03c-7.08,0-12.82-5.74-12.82-12.82
	c0-7.08,5.74-12.82,12.82-12.82H749.67z M461.17,638.09c7.08,0,12.82,5.74,12.82,12.82c0,7.08-5.74,12.82-12.82,12.82H326.53
	c-7.08,0-12.82-5.74-12.82-12.82c0-7.08,5.74-12.82,12.82-12.82H461.17z M512.46,583.59H230.36v153.87h282.09V583.59z M884.3,557.95
	c7.08,0,12.82,5.74,12.82,12.82s-5.74,12.82-12.82,12.82h-64.11v217.98c0,7.08-5.74,12.82-12.82,12.82
	c-7.08,0-12.82-5.74-12.82-12.82V583.59H538.1v153.87h166.69c7.08,0,12.82,5.74,12.82,12.82c0,7.08-5.74,12.82-12.82,12.82H230.36
	v38.47c0,7.08-5.74,12.82-12.82,12.82s-12.82-5.74-12.82-12.82V583.59h-64.11c-7.08,0-12.82-5.74-12.82-12.82
	s5.74-12.82,12.82-12.82H884.3z"/>
<path class="st3" d="M365.3,276.44c7.28,0,13.18,5.9,13.18,13.18s-5.9,13.18-13.18,13.18h-52.73c-7.28,0-13.18-5.9-13.18-13.18
	s5.9-13.18,13.18-13.18H365.3z M418.03,381.9c7.28,0,13.18,5.9,13.18,13.18c0,7.28-5.9,13.18-13.18,13.18H286.21
	c-7.28,0-13.18-5.9-13.18-13.18c0-7.28,5.9-13.18,13.18-13.18H418.03z M365.3,487.35c7.28,0,13.18,5.9,13.18,13.18
	s-5.9,13.18-13.18,13.18h-52.73c-7.28,0-13.18-5.9-13.18-13.18s5.9-13.18,13.18-13.18H365.3z M407.42,131.44
	c1.52,0,3.03,0.26,4.45,0.77l2.06,0.95l104.91,59.65l94.39-59.35c1.4-0.88,2.95-1.49,4.56-1.79l2.46-0.23h261.21
	c6.47,0,11.85,4.66,12.97,10.81l0.21,2.37v464.3c0,7.28-5.9,13.18-13.18,13.18c-6.47,0-11.85-4.66-12.97-10.81l-0.21-2.37l0-451.12
	H624.04l-87.37,54.92v541.87c0,7.28-5.9,13.18-13.18,13.18s-13.18-5.9-13.18-13.18V218.26L403.95,157.8H154.36v635.35l253.06,0.01
	c1.51,0,3.01,0.26,4.42,0.76l2.05,0.93l104.95,59.11l94.44-58.82c1.39-0.87,2.93-1.47,4.53-1.77l2.44-0.23h261.21
	c7.28,0,13.18,5.9,13.18,13.18c0,6.47-4.66,11.85-10.81,12.97l-2.37,0.21l-257.47-0.01l-97.84,60.98
	c-3.41,2.12-7.55,2.56-11.27,1.27l-2.17-0.98l-108.76-61.28l-262.74,0.01c-6.47,0-11.85-4.66-12.97-10.81l-0.21-2.37V144.62
	c0-6.47,4.66-11.85,10.81-12.97l2.37-0.21H407.42z"/>
</svg>
