<?xml version="1.0" encoding="utf-8"?>
<!-- Generator: Adobe Illustrator 23.0.2, SVG Export Plug-In . SVG Version: 6.00 Build 0)  -->
<svg version="1.1" id="图层_1" xmlns="http://www.w3.org/2000/svg" xmlns:xlink="http://www.w3.org/1999/xlink" x="0px" y="0px"
	 viewBox="0 0 1024 1024" style="enable-background:new 0 0 1024 1024;" xml:space="preserve">
<style type="text/css">
	.st0{display:none;fill:#83589F;}
	.st1{display:none;fill:#A3A3A3;}
	.st2{display:none;fill:#E0E0E0;}
	.st3{display:none;}
	.st4{display:inline;fill-rule:evenodd;clip-rule:evenodd;fill:#E0E0E0;}
	.st5{display:inline;fill-rule:evenodd;clip-rule:evenodd;fill:#DCDFE6;}
	.st6{display:inline;fill:#E0E0E0;}
	.st7{display:none;fill:#FFFFFF;}
	.st8{display:inline;fill-rule:evenodd;clip-rule:evenodd;fill:#83589F;}
	.st9{display:inline;}
	.st10{display:inline;fill-rule:evenodd;clip-rule:evenodd;fill:#FF0201;}
	.st11{display:none;fill-rule:evenodd;clip-rule:evenodd;fill:#83589F;}
	.st12{display:none;fill:#333333;}
	.st13{display:inline;clip-path:url(#SVGID_2_);}
	.st14{opacity:0;clip-path:url(#SVGID_4_);}
	.st15{display:none;fill:none;}
	.st16{display:none;fill:#8E8E8E;}
	.st17{display:inline;fill:#83589F;}
	.st18{display:inline;fill:#7657A4;}
	.st19{display:none;opacity:0.848;fill:#FFFFFF;}
	.st20{display:none;opacity:0;}
	.st21{display:inline;fill:#FFFFFF;}
	.st22{display:inline;fill-rule:evenodd;clip-rule:evenodd;fill:#010101;}
	.st23{display:inline;fill:#010101;}
	.st24{display:none;fill:#13D068;}
	.st25{display:none;fill:#F9C626;}
	.st26{fill:#3EA9F5;}
	.st27{fill:#FFFFFF;}
</style>
<path class="st0" d="M777.21,262.65v348.18l-456.97-0.02l-65.31-65.31l0.01-282.85H777.21z M943.17,161.74v536.83
	c-12.91,26.16-39.85,44.16-71,44.16H599.09c-2.23,11.98-3.89,24.86-3.89,39.57c0,79.13,79.13,79.13,79.13,79.13
	c21.85,0,39.57,8.86,39.57,19.78c0,10.93-17.71,19.78-39.57,19.78l-63.97-0.02L380.92,671.49l491.25,0.01V196.71H159.98l0,253.84
	L80.83,371.4l0.02-174.69c0-33.52,20.83-62.16,50.26-73.7l769.95,0C919.45,130.23,934.48,144.13,943.17,161.74z"/>
<path class="st0" d="M353.5,262.93v90.57l-90.57-90.57H353.5z M761.08,262.93v90.57H670.5v-90.57H761.08z M806.36,217.65H625.22
	v181.15h181.15V217.65z M489.36,127.07v362.29l-90.57-90.57V217.65H217.64l-90.57-90.57H489.36z M896.94,127.07v362.29H534.64
	V127.07H896.94z M625.22,534.65v90.57l-90.57-90.57H625.22z M896.94,534.65v90.57h-90.57v-90.57H896.94z M715.79,625.23l-0.02,90.56
	l-90.56-90.56H715.79z M896.94,715.8l-0.02,181.13l-90.55-90.55V715.8H896.94z"/>
<path class="st1" d="M580.03,754.11c0,15.29-11.97,27.68-26.73,27.68H470.7c-14.76,0-26.73-12.39-26.73-27.68
	s11.97-27.68,26.73-27.68h82.99C568.06,726.43,580.03,738.82,580.03,754.11z M724.46,840.87H299.54
	c-12.37,0-21.94-10.33-21.94-22.72v-150.8H746.8v150.8C746.4,830.55,736.83,840.87,724.46,840.87z M299.54,183.54h424.92
	c12.37,0,21.94,10.33,21.94,22.72v405.31H277.6V206.26C277.6,193.87,287.57,183.54,299.54,183.54z M724.46,128.18H299.54
	c-41.49,0-75.41,35.12-75.41,78.09v611.47c0,42.97,33.91,78.09,75.41,78.09h424.92c41.49,0,75.41-35.12,75.41-78.09V206.26
	C799.87,163.29,765.95,128.18,724.46,128.18z"/>
<path class="st1" d="M512,538.56c-30.44,0-55.17,25.84-55.17,57.64c0,21.33,11.13,39.97,27.59,49.96v27.38
	c0,15.85,12.41,28.82,27.59,28.82c15.17,0,27.59-12.97,27.59-28.82v-27.38c16.46-9.99,27.59-28.53,27.59-49.96
	C567.17,564.41,542.44,538.56,512,538.56z M837.51,806.22c0,15.85-12.41,28.82-27.59,28.82H214.08c-15.17,0-27.59-12.97-27.59-28.82
	V491.78c0-15.85,12.41-28.82,27.59-28.82h595.85c15.17,0,27.59,12.97,27.59,28.82V806.22z M348.6,259.67
	c43.68-45.63,101.61-70.71,163.4-70.71s119.72,25.07,163.4,70.71c37.98,39.68,61.06,90.59,66.39,145.64H282.21
	C287.64,350.36,310.72,299.35,348.6,259.67z M809.92,405.31h-12.78c-5.52-70.42-34.48-135.84-82.85-186.38
	c-54.07-56.49-125.88-87.62-202.39-87.62s-148.23,31.13-202.29,87.62c-48.37,50.53-77.24,115.96-82.85,186.38h-12.69
	c-45.61,0-82.76,38.81-82.76,86.46v314.44c0,47.65,37.15,86.46,82.76,86.46h595.85c45.61,0,82.76-38.81,82.76-86.46V491.78
	C892.68,444.13,855.53,405.31,809.92,405.31z"/>
<path class="st1" d="M767.14,379.19L489.28,674.52c-6.99,6.99-17.48,6.99-24.47,0L291.81,501.51c-6.99-6.99-6.99-17.48,0-24.47
	c6.99-6.99,17.48-6.99,24.47,0l160.77,160.77l265.63-283.1c6.99-6.99,17.48-6.99,24.47,0C774.13,361.71,774.13,372.2,767.14,379.19z
	 M826.56,127.54H197.44c-38.45,0-69.9,31.46-69.9,69.9v629.11c0,38.45,31.46,69.9,69.9,69.9h629.11c38.45,0,69.9-31.46,69.9-69.9
	V197.44C896.46,159,865,127.54,826.56,127.54z"/>
<path class="st0" d="M766.56,379.49L489.33,674.15c-6.97,6.97-17.44,6.97-24.41,0L292.32,501.54c-6.97-6.97-6.97-17.44,0-24.41
	c6.97-6.97,17.44-6.97,24.41,0l160.4,160.4l265.02-282.45c6.97-6.97,17.44-6.97,24.41,0C773.53,362.06,773.53,372.52,766.56,379.49z
	 M825.84,128.42H198.16c-38.36,0-69.74,31.38-69.74,69.74v627.67c0,38.36,31.38,69.74,69.74,69.74h627.67
	c38.36,0,69.74-31.38,69.74-69.74V198.16C895.58,159.81,864.19,128.42,825.84,128.42z"/>
<path class="st2" d="M512,623.74c-52.67,0-95.76-43.09-95.76-95.76H512l-71.82-62.24c19.15-19.15,43.09-28.73,71.82-28.73
	c52.67,0,95.76,43.09,95.76,95.76C602.97,585.43,564.67,623.74,512,623.74z M512,389.13c-76.61,0-143.64,62.24-143.64,143.64
	c0,76.61,62.24,143.64,143.64,143.64c76.61,0,143.64-62.24,143.64-143.64C650.85,451.37,588.61,389.13,512,389.13z M512,767.37
	c-287.27,0-383.03-239.39-383.03-239.39S224.73,288.59,512,288.59s383.03,239.39,383.03,239.39S794.48,767.37,512,767.37z"/>
<g class="st3">
	
		<ellipse transform="matrix(0.9239 -0.3827 0.3827 0.9239 -122.2931 86.4244)" class="st4" cx="156.1" cy="350.62" rx="28.28" ry="28.28"/>
	<path class="st5" d="M839.62,350.62c0,10.1,5.39,19.44,14.14,24.49c8.75,5.05,19.53,5.05,28.28,0
		c8.75-5.05,14.14-14.39,14.14-24.49c0-10.1-5.39-19.44-14.14-24.49c-8.75-5.05-19.53-5.05-28.28,0
		C845.01,331.18,839.62,340.51,839.62,350.62z"/>
	<path class="st4" d="M512,583.39c-157.07,0-291.95-77.45-379.83-217.98l47.86-30.02C257.04,458.95,374.95,526.83,512,526.83
		s254.96-67.87,331.97-191.44l47.86,30.02C803.95,505.94,669.07,583.39,512,583.39z"/>
	<path class="st6" d="M646.01,699.99c14.79-5.22,22.19-21.75,16.97-36.11l-40.03-110.51c-5.22-14.79-21.75-22.19-36.11-16.97
		c-14.79,5.22-22.19,21.75-16.97,36.11l40.03,110.51C615.12,697.82,631.65,705.22,646.01,699.99z M866.16,584.26
		c10.88-10.88,10.88-29.15,0-40.03l-83.1-83.1c-10.88-10.88-29.15-10.88-40.03,0s-10.88,29.15,0,40.03l83.1,83.1
		C837.01,595.14,854.85,595.14,866.16,584.26z M159.14,584.26c-10.88-10.88-10.88-29.15,0-40.03l83.1-83.1
		c10.88-10.88,29.15-10.88,40.03,0c10.88,10.88,10.88,29.15,0,40.03l-83.1,83.1C187.86,595.14,170.02,595.14,159.14,584.26z
		 M377.99,699.99c-14.79-5.22-22.19-21.75-16.97-36.11l40.03-110.51c5.22-14.79,21.75-22.19,36.11-16.97
		c14.79,5.22,22.19,21.75,16.97,36.11L414.1,683.03C408.88,697.82,392.35,705.22,377.99,699.99z"/>
</g>
<path class="st1" d="M676.31,426.37l-194.3,204.21l-99.47-104.55c-6.89-7.24-18.05-7.24-24.95,0c-6.89,7.25-6.89,18.98,0,26.22
	L469.54,669.9c3.45,3.62,7.96,5.43,12.47,5.43c4.51,0,9.03-1.81,12.47-5.43l206.78-217.31c6.89-7.24,6.89-18.97,0-26.22
	C694.37,419.13,683.2,419.13,676.31,426.37z M808.54,339.58l-0.42,8.07c-0.43,1.84-0.72,3.72-0.85,5.63
	c-4.71,68.64-17.92,170.38-39.2,230.7c-0.59,1.63-1.14,3.3-1.69,4.97c-0.34,1.04-0.68,2.08-1.2,3.44c-0.43,1.05-0.86,2.1-1.15,2.89
	c-48.39,128.08-131.6,220.3-228.3,253.01c-1.56,0.53-3.08,1.16-4.53,1.87c-6.56,2.1-12.99,3.9-19.22,5.36
	c-6.19-1.45-12.59-3.24-19.14-5.33c-1.47-0.73-3.01-1.36-4.6-1.9c-96.71-32.71-179.92-124.93-228.21-252.78
	c-0.38-1.03-0.78-2.02-1.4-3.53c-0.37-1-0.7-2.04-1.04-3.07c-0.55-1.67-1.1-3.34-1.6-4.73c-21.36-60.54-34.57-162.28-39.27-230.91
	c-0.13-1.91-0.42-3.8-0.85-5.65l-0.41-7.9c-0.07-1.27-0.13-2.53-0.2-3.78c20.42-3.24,40.11-7.91,58.01-13.79
	c8.4-2.59,16.93-5.47,26.05-8.8c20.9-6.44,46.8-18.04,75.02-33.61c0.49-0.26,0.96-0.51,1.37-0.75c6.82-3.77,13.8-7.81,20.57-11.88
	c8.88-5.21,18.23-11.07,28.59-17.91c0.29-0.19,0.79-0.52,1.08-0.72c6.8-4.51,13.58-9.16,20-13.78c3.77-2.65,7.54-5.44,11.32-8.25
	l2.03-1.5l3.35-2.48c2.14-1.57,4.28-3.15,6.25-4.67c14.84-11.37,29.25-23.34,43.1-35.81c13.84,12.46,28.21,24.41,42.95,35.69
	c2.13,1.65,4.25,3.21,6.38,4.77l3.55,2.62l1.29,0.96c3.96,2.94,7.93,5.89,11.57,8.44c6.73,4.84,13.52,9.5,19.68,13.57l1.71,1.14
	c10.27,6.79,19.62,12.65,28.25,17.72c7.11,4.28,14.09,8.31,20.74,11.99c0.33,0.19,0.79,0.43,1.27,0.69
	c28.33,15.65,54.33,27.3,75.3,33.77c9.13,3.33,17.64,6.21,25.36,8.58c18.34,6.02,38.2,10.75,58.69,14
	C808.67,337.15,808.61,338.36,808.54,339.58z M847.81,303.96c-29.93-2.12-60.02-7.88-85.82-16.36c-8.35-2.58-16.72-5.43-25.13-8.52
	c-17.73-5.35-41.86-15.98-69.24-31.11c-0.29-0.14-0.58-0.31-0.87-0.47c-6.44-3.56-13.02-7.37-19.73-11.4
	c-9.04-5.31-17.99-10.97-26.92-16.87c-0.35-0.24-0.69-0.45-1.03-0.69c-6.42-4.25-12.81-8.64-19.15-13.19
	c-4.13-2.9-8.26-6-12.39-9.06c-3.11-2.34-6.22-4.53-9.33-6.94c-22.74-17.42-45.19-36.96-66.21-58.01
	c-21.02,21.05-43.47,40.6-66.21,58.01c-3.1,2.41-6.22,4.61-9.33,6.94c-4.14,3.07-8.27,6.16-12.39,9.06
	c-6.35,4.56-12.73,8.95-19.15,13.19c-0.34,0.23-0.68,0.45-1.02,0.69c-8.94,5.9-17.88,11.56-26.92,16.87
	c-6.71,4.04-13.29,7.84-19.73,11.4c-0.29,0.16-0.58,0.33-0.87,0.47c-27.38,15.13-51.52,25.76-69.25,31.11
	c-8.41,3.09-16.76,5.95-25.13,8.52c-25.8,8.47-55.88,14.24-85.82,16.36h-0.07c0.87,13.76,1.77,32.01,2.82,51.76
	c0.17,0,0.36,0,0.55-0.03c5.05,73.74,19.46,178.63,41.21,240.26c0.97,2.69,1.8,5.5,2.78,8.17c0.46,1.25,0.99,2.41,1.45,3.66
	c52.04,137.77,142.43,238.01,251.06,274.76v0.38c14.36,4.86,26.46,7.86,36.01,9.75c9.55-1.89,21.65-4.89,36.01-9.75v-0.38
	c108.63-36.74,199.02-136.99,251.07-274.76c0.46-1.25,0.99-2.41,1.46-3.66c0.97-2.66,1.8-5.48,2.77-8.17
	c21.75-61.63,36.16-166.52,41.21-240.26c0.2,0.03,0.39,0.03,0.55,0.03c1.05-19.75,1.94-38,2.82-51.76H847.81z"/>
<path class="st7" d="M382.18,767.84c-12.95-0.4-25.25-5.81-34.29-15.09L143.15,549.04c-19.47-20.19-19.47-52.17,0-72.36
	c9.53-9.59,22.49-14.99,36.01-14.99s26.48,5.39,36.01,14.99l167.01,168.04l426.62-373.46c9.42-9.66,22.34-15.1,35.84-15.1
	c13.49,0,26.41,5.45,35.84,15.1c9.59,9.53,14.99,22.49,14.99,36.01c0,13.52-5.39,26.48-14.99,36.01L418.19,752.75
	C408.65,762.35,395.7,767.77,382.18,767.84z"/>
<g class="st3">
	<path class="st8" d="M387.94,833.61h248.13c17.13,0,31.02,13.89,31.02,31.02c0,17.13-13.89,31.02-31.02,31.02H387.94
		c-17.13,0-31.02-13.89-31.02-31.02C356.92,847.49,370.81,833.61,387.94,833.61z"/>
	<path class="st9" d="M512,127.99c70.66,0,128.34,55.6,131.67,125.43l0.15,6.39h-46.52c0-47.11-38.19-85.29-85.29-85.29
		c-45.36,0-82.45,35.41-85.14,80.1l-0.16,5.2h-46.52C380.18,187.01,439.2,127.99,512,127.99z"/>
	<path class="st9" d="M511.21,221.04c180.63,0,267.26,114.31,255.34,330.78c-0.71,12.83-11.68,22.65-24.51,21.95
		c-12.83-0.71-22.65-11.68-21.95-24.51c10.57-191.85-57.54-281.7-208.89-281.7c-147.29,0-214.96,109.35-203.01,341.59l1.16,19.71
		L236.9,738.01c-2.37,3.57-1.4,8.38,2.17,10.75c0.85,0.56,1.79,0.95,2.78,1.15l1.51,0.15h537.29c4.28,0,7.75-3.47,7.75-7.75
		c0-0.96-0.18-1.9-0.52-2.79l-0.63-1.28L723.51,634.7c-6.74-10.94-3.33-25.27,7.61-32c10.03-6.17,22.9-3.82,30.17,5.04l1.84,2.58
		l63.74,103.53c5.27,8.56,8.06,18.41,8.06,28.46c0,28.48-21.93,51.83-49.83,54.1l-4.45,0.18H243.36c-10.68,0-21.12-3.15-30.02-9.06
		c-23.59-15.66-30.97-46.58-17.75-71l2.55-4.24l63.82-96.19l-0.22-4.42c-12.83-251.83,67.51-386.32,241-390.53L511.21,221.04z"/>
</g>
<g class="st3">
	<path class="st8" d="M337.88,833.79H586c17.13,0,31.02,13.89,31.02,31.02s-13.89,31.02-31.02,31.02H337.88
		c-17.13,0-31.02-13.89-31.02-31.02S320.75,833.79,337.88,833.79z"/>
	<path class="st9" d="M477.45,128.18c70.66,0,128.34,55.6,131.67,125.43l0.15,6.39h-46.52c0-47.11-38.19-85.29-85.29-85.29
		c-45.36,0-82.45,35.41-85.14,80.1l-0.16,5.2h-46.52C345.63,187.19,404.65,128.18,477.45,128.18z"/>
	<path class="st9" d="M477.45,221.22c180.63,0,267.26,114.31,255.34,330.78c-0.71,12.83-11.68,22.65-24.51,21.95
		c-12.83-0.71-22.65-11.68-21.95-24.51c10.57-191.85-57.54-281.7-208.89-281.7c-147.29,0-214.96,109.35-203.01,341.59l1.16,19.71
		l-72.46,109.14c-2.37,3.57-1.4,8.38,2.17,10.75c0.85,0.56,1.79,0.95,2.78,1.15l1.51,0.15h537.29c4.28,0,7.75-3.47,7.75-7.75
		c0-0.96-0.18-1.9-0.52-2.79l-0.63-1.28l-63.74-103.53c-6.74-10.94-3.33-25.27,7.61-32c10.03-6.17,22.9-3.82,30.17,5.04l1.84,2.58
		l63.74,103.53c5.27,8.56,8.06,18.41,8.06,28.46c0,28.48-21.93,51.83-49.83,54.1l-4.45,0.18H209.6c-10.68,0-21.12-3.15-30.02-9.06
		c-23.59-15.66-30.97-46.58-17.75-71l2.55-4.24l63.82-96.19l-0.22-4.42c-12.83-251.83,67.51-386.32,241-390.53L477.45,221.22z"/>
	<circle class="st10" cx="713.6" cy="345.29" r="155.08"/>
</g>
<path class="st3" d="M372.01,215.56c14.39-6.19,31.07,0.45,37.26,14.84c6.19,14.39-0.45,31.07-14.84,37.26
	c-108.44,46.66-180.2,153.56-180.2,273.67c0,164.46,133.32,297.77,297.77,297.77s297.77-133.32,297.77-297.77
	c0-118.6-69.97-224.42-176.38-271.99c-14.3-6.39-20.71-23.17-14.32-37.46c6.39-14.3,23.17-20.71,37.46-14.32
	c126.65,56.62,209.95,182.6,209.95,323.77c0,195.78-158.71,354.49-354.49,354.49S157.51,737.11,157.51,541.33
	C157.51,398.37,242.93,271.1,372.01,215.56z"/>
<path class="st11" d="M512,128.18c23.49,0,42.54,19.05,42.54,42.54v255.23c0,23.49-19.05,42.54-42.54,42.54
	s-42.54-19.05-42.54-42.54V170.71C469.46,147.22,488.51,128.18,512,128.18z"/>
<path class="st12" d="M879.49,374.81L550.86,734.18c-9.82,11.17-23.97,17.58-38.85,17.58c-14.88,0-29.03-6.4-38.85-17.58
	L144.53,374.81c-16.04-16.94-21-41.64-12.71-63.45c8.29-21.81,28.3-37.05,51.56-39.12h657c23.35,1.98,43.44,17.12,51.74,39.03
	C900.5,333.17,895.54,357.78,879.49,374.81z"/>
<path class="st7" d="M655.77,751.62c0,13.23,10.73,23.96,23.96,23.96s23.96-10.73,23.96-23.96s-10.73-23.96-23.96-23.96
	S655.77,738.39,655.77,751.62z M751.62,751.62c0,13.23,10.73,23.96,23.96,23.96s23.96-10.73,23.96-23.96s-10.73-23.96-23.96-23.96
	S751.62,738.39,751.62,751.62z M847.47,655.77H176.53c-26.44,0-47.92,21.48-47.92,47.92v95.85c0,26.44,21.48,47.92,47.92,47.92
	h670.94c26.44,0,47.92-21.48,47.92-47.92V703.7C895.39,677.25,873.91,655.77,847.47,655.77z M847.47,703.7v95.85H176.53V703.7
	H847.47z M655.77,512c0,13.23,10.73,23.96,23.96,23.96S703.7,525.23,703.7,512c0-13.23-10.73-23.96-23.96-23.96
	S655.77,498.77,655.77,512z M559.92,751.62c0,13.23,10.73,23.96,23.96,23.96s23.96-10.73,23.96-23.96s-10.73-23.96-23.96-23.96
	S559.92,738.39,559.92,751.62z M559.92,272.38c0,13.23,10.73,23.96,23.96,23.96s23.96-10.73,23.96-23.96s-10.73-23.96-23.96-23.96
	S559.92,259.15,559.92,272.38z M751.62,512c0,13.23,10.73,23.96,23.96,23.96s23.96-10.73,23.96-23.96
	c0-13.23-10.73-23.96-23.96-23.96S751.62,498.77,751.62,512z M847.47,416.15H176.53c-26.44,0-47.92,21.48-47.92,47.92v95.85
	c0,26.44,21.48,47.92,47.92,47.92h670.94c26.44,0,47.92-21.48,47.92-47.92v-95.85C895.39,437.63,873.91,416.15,847.47,416.15z
	 M847.47,464.08v95.85H176.53v-95.85H847.47z M655.77,272.38c0,13.23,10.73,23.96,23.96,23.96s23.96-10.73,23.96-23.96
	s-10.73-23.96-23.96-23.96S655.77,259.15,655.77,272.38z M751.62,272.38c0,13.23,10.73,23.96,23.96,23.96s23.96-10.73,23.96-23.96
	s-10.73-23.96-23.96-23.96S751.62,259.15,751.62,272.38z M847.47,176.53H176.53c-26.44,0-47.92,21.48-47.92,47.92v95.85
	c0,26.44,21.48,47.92,47.92,47.92h670.94c26.44,0,47.92-21.48,47.92-47.92v-95.85C895.39,198.01,873.91,176.53,847.47,176.53z
	 M847.47,224.46v95.85H176.53v-95.85H847.47z"/>
<g class="st3">
	<defs>
		<rect id="SVGID_1_" x="63.33" y="119.5" width="723.16" height="723.16"/>
	</defs>
	<clipPath id="SVGID_2_" class="st9">
		<use xlink:href="#SVGID_1_"  style="overflow:visible;"/>
	</clipPath>
	<g class="st13">
		<defs>
			<rect id="SVGID_3_" x="-11094.03" y="-5614.14" width="23089.54" height="13998.36"/>
		</defs>
		<clipPath id="SVGID_4_">
			<use xlink:href="#SVGID_3_"  style="overflow:visible;"/>
		</clipPath>
		<rect x="-194.94" y="-138.77" class="st14" width="1239.71" height="1239.71"/>
	</g>
</g>
<path class="st7" d="M374.72,144.24l359.62,328.87c11.18,9.83,17.59,23.99,17.59,38.88c0,14.89-6.41,29.05-17.59,38.88
	L374.72,879.73c-16.96,16.05-41.67,21.02-63.5,12.72c-21.83-8.3-37.07-28.32-39.15-51.59V183.39c1.98-23.36,17.14-43.47,39.06-51.77
	C333.05,123.22,357.67,128.18,374.72,144.24z"/>
<path class="st7" d="M281.56,473.59H512v76.81H281.56V473.59z M281.56,319.96H512v76.81H281.56V319.96z M665.63,407.83v430.63
	h172.83V512L665.63,407.83z M665.63,329.56L878.02,462.3c11.23,7.02,18.05,19.33,18.05,32.57v362.8c0,21.21-17.2,38.41-38.41,38.41
	H166.33c-21.21,0-38.41-17.2-38.41-38.41V166.33c0-21.21,17.2-38.41,38.41-38.41h460.89c21.21,0,38.41,17.2,38.41,38.41V329.56z
	 M608.02,838.46V185.54H185.54v652.93H608.02z"/>
<path class="st7" d="M368.4,337.98c0-79.31,64.29-143.6,143.6-143.6s143.6,64.29,143.6,143.6S591.31,481.59,512,481.59
	S368.4,417.3,368.4,337.98z M634.31,501.8c51.72-38.56,82.17-99.3,82.12-163.81c0-112.9-91.53-204.43-204.43-204.43
	s-204.43,91.53-204.43,204.43c-0.05,64.51,30.4,125.25,82.12,163.81c-148.99,50.85-256.13,192.03-256.13,358.23
	c0,16.8,13.62,30.41,30.41,30.41s30.41-13.62,30.41-30.41c0-175.42,142.2-317.62,317.62-317.62s317.62,142.2,317.62,317.62
	c0,16.8,13.62,30.41,30.41,30.41c16.79,0,30.41-13.62,30.41-30.41C890.44,693.83,783.29,552.65,634.31,501.8z"/>
<path class="st7" d="M464.01,813.91v81.73H128.37v-81.73H464.01z M896.02,127.99v81.73H560.38v-81.73H896.02z M560.38,303.13h335.64
	v592.51H560.38V303.13z M645.59,813.91h165.22V384.86H645.59V813.91z M128.37,127.99h335.64V720.5H128.37V127.99z M213.58,638.77
	H378.8V209.72H213.58V638.77z"/>
<path class="st7" d="M659.22,790.67c7.14,4.46,19.4,14.5,25.2,20.3c16.06-12.27,34.57-32.12,45.95-51.75l-30.33-9.57
	C691.12,765.02,675.28,780.86,659.22,790.67z M747.99,763.46c13.38,14.5,28.77,34.79,35.46,47.95l27.21-17.16
	c-7.81-12.71-22.75-31.23-36.8-45.05L747.99,763.46z M645.18,600.38c-10.71,30.78-29.22,61.56-48.4,80.96
	c5.35,8.03,14.05,26.1,16.95,34.13c3.12-3.35,6.47-7.14,9.59-11.15v107.54h31.9V655.29c7.76-14.66,14.61-29.78,20.52-45.28
	L645.18,600.38z M750.89,711.05h-25.87v-38.6h25.87V711.05z M782.56,711.05v-38.6h27.21v-30.99h-27.21V601.1h-31.67v40.37h-25.87
	v-39.92h-31.67v39.92h-22.3v30.98h22.3v38.6H665.7v31.67h145.64v-31.67H782.56z M809.62,808.71
	c-53.42,53.41-138.3,58.53-197.75,11.93c-1.02-0.97-2.12-1.86-3.28-2.66c-3.51-2.92-6.89-6.02-10.17-9.28
	c-36.53-36.61-51.53-89.5-39.68-139.83c11.85-50.34,48.89-90.97,97.91-107.43c3.5-0.34,6.9-1.34,10.03-2.95
	c12.2-3.12,24.74-4.69,37.33-4.68c60.4,0,114.86,36.38,137.98,92.19c23.12,55.81,10.34,120.04-32.38,162.75V808.71z M182.7,747.94
	v-45.25c0-87.02,64.67-157.85,144.12-157.85h30.5l71.01,76.82c6.83,7.37,16.42,11.57,26.47,11.6h0.04
	c10.04-0.01,19.61-4.19,26.46-11.53l71.46-76.89h30.3c3.71,0,7.46,0.16,11.15,0.48c-41.89,29.14-70.48,73.75-79.46,123.98
	c-8.98,50.24,2.38,101.98,31.58,143.83l-305.4-0.05C208.85,813.13,182.7,783.88,182.7,747.94z M704.02,510.91
	c-10.63,0-21.25,0.88-31.74,2.62c-1.81-1.6-3.83-2.96-6.01-4.03c-0.99-0.49-2-0.98-3.01-1.46c-8.58-4.06-17.45-7.47-26.53-10.21
	c-7.5-2.25-15.13-4.03-22.85-5.33c-10.17-1.7-20.46-2.56-30.76-2.56h-38.49c-10.03,0.01-19.62,4.19-26.46,11.53l-63.25,68.02
	l-62.83-67.94c-6.84-7.39-16.45-11.59-26.52-11.61h-38.72c-53.38,0-103.57,22.45-141.33,63.22
	c-37.22,40.19-57.72,93.28-57.72,149.51v45.25c0,66.19,50.79,120.04,113.24,120.04L593,868.04c3.22-0.01,6.42-0.59,9.44-1.72
	c30.46,19,65.64,29.04,101.54,28.99c106.17,0,192.23-86.06,192.23-192.23S810.19,510.91,704.02,510.91z M374.52,217.51
	c39.07-39.07,100.29-45.1,146.23-14.4c45.94,30.69,63.8,89.57,42.66,140.61c-21.14,51.04-75.4,80.05-129.59,69.27
	c-54.19-10.78-93.22-58.33-93.22-113.58C340.52,268.67,352.73,239.18,374.52,217.51z M456.42,470.12
	c94.29,0,170.71-76.44,170.71-170.71s-76.43-170.71-170.71-170.71c-94.28,0-170.71,76.44-170.71,170.71S362.13,470.12,456.42,470.12
	z"/>
<rect x="153.33" y="153.33" class="st15" width="717.34" height="717.34"/>
<path class="st1" d="M218.54,175.75h586.91c23.49,0,42.8,19.31,42.8,42.8v586.91c0,23.49-19.31,42.8-42.8,42.8H218.54
	c-23.49,0-42.8-19.31-42.8-42.8V218.54C175.75,195.06,195.06,175.75,218.54,175.75z M805.46,130.91H218.54
	c-48.25,0-87.63,39.38-87.63,87.63v586.91c0,48.25,39.38,87.63,87.63,87.63h586.91c48.25,0,87.63-39.38,87.63-87.63V218.54
	C893.09,170.3,853.7,130.91,805.46,130.91z"/>
<path class="st16" d="M381.92,768.35c-12.98-0.4-25.3-5.82-34.36-15.12L142.41,549.12c-19.51-20.23-19.51-52.27,0-72.51
	c9.55-9.61,22.53-15.02,36.08-15.02c13.55,0,26.53,5.4,36.08,15.02l167.35,168.38l427.47-374.21c9.44-9.68,22.39-15.13,35.91-15.13
	s26.47,5.46,35.91,15.13c9.61,9.55,15.02,22.53,15.02,36.08s-5.4,26.53-15.02,36.08L418,753.23
	C408.44,762.85,395.47,768.29,381.92,768.35z"/>
<path class="st1" d="M623.51,511.99l245.42-245.41c30.79-30.8,30.79-80.72,0-111.51c-30.8-30.79-80.71-30.79-111.52,0L512,400.47
	l-245.41-245.4c-30.8-30.79-80.71-30.79-111.52,0c-30.79,30.79-30.79,80.72,0,111.51l245.41,245.41L155.07,757.41
	c-30.79,30.8-30.79,80.72,0,111.52c14.77,14.81,34.84,23.12,55.75,23.1c20.92,0.02,40.98-8.29,55.75-23.1l245.41-245.42
	l245.42,245.42c14.77,14.81,34.84,23.12,55.75,23.1c20.92,0.03,40.98-8.29,55.75-23.1c30.79-30.8,30.79-80.72,0-111.52
	L623.51,511.99z"/>
<g class="st3">
	<path class="st17" d="M634.49,803.81c75.86-32.49,136.25-93.02,168.56-168.96c33.21-78.54,33.21-167.18,0-245.72
		c-32.3-75.95-92.69-136.48-168.56-168.96c-78.26-33.24-166.66-33.24-244.92,0c-75.89,32.46-136.31,93-168.61,168.96
		c-33.21,78.54-33.21,167.18,0,245.72c32.3,75.95,92.71,136.48,168.59,168.95c78.26,33.23,166.66,33.23,244.92,0L634.49,803.81z
		 M512,892.39c-208.78,0-379.59-171.18-379.59-380.4S303.22,131.61,512,131.61S891.59,302.78,891.59,512S720.77,892.39,512,892.39z"
		/>
	<path class="st17" d="M340.17,480.18h343.65c21.21,0,31.82,10.61,31.82,31.82c0,21.21-10.61,31.82-31.82,31.82H340.17
		c-21.21,0-31.82-10.61-31.82-31.82C308.35,490.79,318.96,480.18,340.17,480.18z"/>
	<path class="st17" d="M480.18,683.83V340.17c0-21.21,10.61-31.82,31.82-31.82c21.21,0,31.82,10.61,31.82,31.82v343.65
		c0,21.21-10.61,31.82-31.82,31.82C490.79,715.65,480.18,705.04,480.18,683.83z"/>
</g>
<g class="st3">
	<path class="st9" d="M511.47,199.1c-10.4,0-20.81,0-31.21,1.73c-126.58,12.14-230.61,104.04-244.48,218.47
		c-10.4,84.96,27.74,166.46,102.3,220.21l5.2,3.47L513.2,816.38l173.39-178.59c65.89-46.82,104.04-117.91,104.04-192.47
		c0-65.89-27.74-128.31-79.76-173.39C657.12,225.11,586.02,199.1,511.47,199.1z M513.2,892.67c-15.61,0-29.48-5.2-39.88-17.34
		L294.73,695.01c-93.63-69.36-140.45-175.13-126.58-282.63c17.34-145.65,145.65-263.56,305.17-279.16
		c105.77-10.4,208.07,22.54,282.63,90.16c65.89,60.69,102.3,140.45,102.3,225.41c0,97.1-46.82,187.26-130.04,247.95L553.08,875.33
		C542.68,887.47,527.07,892.67,513.2,892.67z"/>
	<path class="st18" d="M513.2,369.03c-36.41,0-65.89,26.01-65.89,57.22s29.48,57.22,65.89,57.22c36.41,0,65.89-26.01,65.89-57.22
		S549.61,369.03,513.2,369.03z M513.2,551.09c-74.56,0-135.25-57.22-135.25-126.58s60.69-126.58,135.25-126.58
		c74.56,0,135.25,57.22,135.25,126.58S587.76,551.09,513.2,551.09z"/>
</g>
<path class="st7" d="M494.56,214.94L328.52,396.32c-13.1,14.26-35.28,15.19-49.53,2.09c-14.26-13.1-15.19-35.28-2.09-49.53
	L468.75,139.6c6.61-7.27,15.98-11.42,25.81-11.42s19.2,4.15,25.81,11.42l191.85,209.29c13.1,14.26,12.16,36.43-2.09,49.53
	c-14.26,13.1-36.43,12.16-49.53-2.09L494.56,214.94z M825.93,826.06V651.65c0-19.26,15.62-34.88,34.88-34.88
	s34.88,15.62,34.88,34.88v209.29c0,19.26-15.62,34.88-34.88,34.88H163.19c-19.26,0-34.88-15.62-34.88-34.88V651.65
	c0-19.26,15.62-34.88,34.88-34.88s34.88,15.62,34.88,34.88v174.41H825.93z M546.88,721.42c0,19.26-15.62,34.88-34.88,34.88
	c-19.26,0-34.88-15.62-34.88-34.88V233.08c0-19.26,15.62-34.88,34.88-34.88c19.26,0,34.88,15.62,34.88,34.88V721.42z"/>
<rect x="130.05" y="130.05" class="st15" width="763.89" height="763.89"/>
<path class="st19" d="M861.51,568.84c-16.13,0.03-29.2,13.1-29.23,29.23v165.2c-0.03,9.61-7.81,17.39-17.42,17.42H209.09
	c-9.61-0.03-17.39-7.81-17.42-17.42V597.97c-1.11-15.31-13.85-27.17-29.21-27.17s-28.1,11.86-29.21,27.17v188.43
	c0,29.03,23.58,52.56,52.45,52.56h652.57c28.98,0,52.45-23.58,52.45-52.51V598.02C890.71,581.89,877.63,568.84,861.51,568.84z
	 M492.14,690.45c5.48,5.5,12.93,8.59,20.7,8.59s15.22-3.09,20.7-8.59l131.85-131.8c10.35-11.56,9.87-29.18-1.09-40.16
	c-10.96-10.98-28.59-11.48-40.16-1.14l-81.99,81.89V212.61c-0.91-15.48-13.73-27.56-29.23-27.56c-15.5,0-28.32,12.08-29.23,27.56
	v386.63l-81.94-81.89c-5.47-5.48-12.89-8.56-20.63-8.56c-7.74,0-15.16,3.08-20.63,8.56c-11.36,11.41-11.41,29.84-0.1,41.3
	L492.14,690.5L492.14,690.45z"/>
<polygon class="st3" points="287.62,195.21 604.4,512 287.62,828.79 353.61,894.78 736.38,512 353.61,129.22 "/>
<rect x="-130.23" y="-130.23" class="st20" width="1284.47" height="1284.47"/>
<rect x="126.66" y="126.66" class="st15" width="770.68" height="770.68"/>
<g class="st3">
	<path class="st21" d="M352.75,828.12c-23.32,0-48.98-29.47-48.98-71.53V345.41h433.12v411.56c0,42.08-25.65,71.53-48.96,71.53
		H352.75V828.12z M437.04,262.12c2.67-37.46,35.09-66.64,75.15-66.64s72.5,29.16,74.77,66.64H437.04z M517.74,128.85
		c-78.22,0-141.88,62.07-144.57,139.85H190.65c-20.32,0-36.79,16.46-36.81,36.78c0.02,20.32,16.5,36.78,36.81,36.78h40.65v412.28
		c0,77.41,52.55,140.62,117.34,140.62h330.55c64.79,0,117.34-62.84,117.34-140.62V342.67h36.81c20.32,0,36.8-16.47,36.81-36.8
		c-0.02-20.32-16.5-36.78-36.81-36.78H661.93C659.81,191,595.87,128.81,517.74,128.85z"/>
	<path class="st21" d="M620.28,653.59c18.32,0,33.32-16.31,33.32-36.74v-209.7c0-20.43-15-36.74-33.32-36.74
		s-33.32,16.31-33.32,36.74v209.7C586.96,637.28,601.53,653.59,620.28,653.59z M520.33,653.59c18.34,0,33.34-16.31,33.34-36.74
		v-209.7c0-20.43-15-36.74-33.34-36.74c-18.32,0-33.32,16.31-33.32,36.74v209.7c0,20.43,15,36.74,33.34,36.74H520.33z
		 M403.72,653.59c18.34,0,33.32-16.31,33.32-36.74v-209.7c0-20.43-14.98-36.74-33.32-36.74c-18.32,0-33.32,16.31-33.32,36.74v209.7
		c0,20.43,14.57,36.74,33.34,36.74H403.72z"/>
</g>
<path class="st1" d="M877.7,375.49L550.67,733.09c-9.77,11.12-23.86,17.49-38.66,17.49c-14.8,0-28.89-6.37-38.66-17.49
	L146.33,375.49c-15.96-16.86-20.9-41.44-12.65-63.14c8.25-21.71,28.16-36.86,51.31-38.93h653.78c23.23,1.97,43.23,17.04,51.48,38.84
	C898.6,334.05,893.66,358.53,877.7,375.49z"/>
<g class="st3">
	<path class="st22" d="M474.59,312.29c2.03,14.19-1.37,31.89-10.2,53.1c-20.59,49.5-52.95,116.63-52.95,147.5
		c0,41.52,22.57,67.78,67.7,78.78c-14.93-21.13-22.39-37.27-22.39-48.4c0-47.87,36.66-83.68,58.18-166.33
		C520.64,354.99,507.19,333.45,474.59,312.29z"/>
	<path class="st8" d="M463.82,544.52c7.03,22.16,18.41,36.65,34.13,43.48c23.59,10.23,67.08-4.13,80.37-4.53
		c8.86-0.27,17.25,1.24,25.19,4.53c-2.92-20.1-13.13-34.6-30.61-43.48c-26.23-13.32-61.75,2.97-80.91,2.97
		C479.23,547.49,469.83,546.5,463.82,544.52z"/>
	<path class="st21" d="M922.31,714.16v-8.46h-41.57v-32.76h34.54v-7.06h-34.54v-27.22h41.57v-7.06h-61.93v82.58H922.31z
		 M754.58,707.28h-11.19v-61.93h11.19c4.38,0,8.42,0.77,12.11,2.32c3.69,1.55,6.86,3.68,9.52,6.39c2.66,2.71,4.73,5.94,6.23,9.66
		c1.5,3.73,2.24,7.77,2.24,12.13c0,5.05-0.79,9.52-2.37,13.42s-3.74,7.19-6.48,9.86c-2.74,2.68-5.93,4.7-9.58,6.08
		S758.72,707.28,754.58,707.28z M755.91,714.16c7.91,0,14.93-1.1,21.05-3.29c6.13-2.19,11.29-5.2,15.49-9.01
		c4.2-3.82,7.39-8.27,9.58-13.37c2.19-5.1,3.29-10.55,3.29-16.35c0-6.46-1.29-12.2-3.86-17.23s-6.2-9.28-10.86-12.73
		c-4.67-3.45-10.22-6.08-16.67-7.89c-6.45-1.81-13.53-2.71-21.24-2.71h-29.94v82.58H755.91z M674.58,714.16v-82.58h-13.19v51.73
		l-49-51.73h-13.5v81.38h13.38v-55.93l53.25,57.13H674.58z M516.31,686.63h-20.64l10.47-20.64L516.31,686.63z M481.09,714.16
		l10.2-22.08h30.2l9.74,22.08h19.48l-36.45-82.58h-8.25l-37.88,82.58H481.09z M391.4,714.16l35.45-82.58h-12.38l-24.17,56.23
		l-26.03-56.23h-19.99l38.12,82.58H391.4z M268.58,686.63h-20.64l10.47-20.64L268.58,686.63z M240.25,714.16l10.2-22.08h30.2
		l9.74,22.08h19.48l-36.45-82.58h-8.25l-37.88,82.58H240.25z M186.01,714.16v-8.46h-41.81v-74.11h-20.12v82.58H186.01z"/>
</g>
<rect x="-355.2" y="-474.1" class="st15" width="1734.41" height="2020.19"/>
<g class="st3">
	<path class="st22" d="M463.39,18.94c4.81,33.86-3.26,76.1-24.21,126.73C390.29,263.8,313.43,423.99,313.43,497.66
		c0,99.08,53.59,161.75,160.77,188c-35.44-50.44-53.16-88.94-53.16-115.51c0-114.23,87.05-199.69,138.14-396.94
		C572.74,120.85,540.81,69.43,463.39,18.94z"/>
	<path class="st8" d="M442.8,578.18c16.53,50.52,43.27,83.56,80.23,99.11c55.44,23.32,157.69-9.41,188.92-10.33
		c20.82-0.61,40.56,2.83,59.22,10.33c-6.87-45.83-30.86-78.86-71.96-99.11c-61.65-30.36-145.17,6.78-190.19,6.78
		C479.01,584.96,456.93,582.7,442.8,578.18z"/>
	<path class="st23" d="M834.3,1004.09v-6.75h-33.04v-26.14h27.45v-5.64h-27.45v-21.72h33.04v-5.64h-49.22v65.89H834.3z
		 M699.4,997.33h-8.6v-52.48h8.6c3.37,0,6.47,0.66,9.3,1.97c2.83,1.31,5.27,3.12,7.31,5.42c2.04,2.3,3.64,5.03,4.79,8.19
		s1.72,6.58,1.72,10.28c0,4.28-0.61,8.07-1.82,11.37c-1.21,3.3-2.87,6.09-4.98,8.36c-2.11,2.27-4.56,3.98-7.36,5.15
		S702.57,997.33,699.4,997.33z M701.1,1004.09c6.32,0,11.92-0.87,16.81-2.62c4.89-1.75,9.01-4.15,12.37-7.19
		c3.35-3.04,5.9-6.6,7.65-10.67c1.75-4.07,2.62-8.41,2.62-13.05c0-5.15-1.03-9.73-3.09-13.75c-2.06-4.02-4.95-7.4-8.67-10.15
		c-3.73-2.75-8.16-4.85-13.31-6.29c-5.15-1.44-10.8-2.16-16.96-2.16h-23.91v65.89H701.1z M628.24,1005.06V938.2h-10.11v41.88
		l-37.56-41.88h-10.35v65.89h10.25V958.8l40.81,46.26H628.24z M503.64,979.99h-19.82l10.06-21.28L503.64,979.99z M472.11,1004.09
		l8.65-17.98h25.61l8.26,17.98h16.52l-30.9-67.25h-7l-32.12,67.25H472.11z M400.32,1005.06l29.64-66.86h-10.35l-20.21,45.53
		l-21.77-45.53h-16.71l31.87,66.86H400.32z M301.91,979.99h-19.82l10.06-21.28L301.91,979.99z M270.38,1004.09l8.65-17.98h25.61
		l8.26,17.98h16.52l-30.9-67.25h-7l-32.12,67.25H270.38z M226.73,1004.09v-6.75H193.1V938.2h-16.18v65.89H226.73z"/>
	<path class="st23" d="M831.63,880.66h-50.97v-21.09h50.97V880.66z M780.66,897.87v-5.69h50.97v5.69h12.16v-49.68H809.9v-16.43
		h41.27v-11.64H809.9v-13.97h-12.29v42.04H768.5v49.68H780.66z M746.12,897.35c8.93-17.08,13.58-39.84,13.97-68.3v-26.91h93.92
		v-11.9h-47.22c-1.81-4.4-3.62-8.54-5.69-12.29l-12.81,2.07c2.07,3.1,4.14,6.47,5.95,10.22h-46.31v38.81
		c-0.26,25.61-4.01,45.66-11.13,60.02L746.12,897.35z M650.97,881.57H596.9v-10.35h54.07V881.57z M559.51,896.58
		c7.11-14.49,13.58-30.14,19.27-46.7l-10.87-4.14c-5.56,15.52-12.16,30.79-19.79,45.79L559.51,896.58z M650.97,839.27h-7.89
		c-2.59,0-3.88-1.29-3.88-3.62v-17.08h11.77V839.27z M650.97,860.35H596.9v-12.03l6.6,5.69c9.31-6.08,14.1-15.78,14.36-29.24v-6.21
		h11.13v19.66c0,7.24,3.75,11,11.25,11h10.74V860.35z M596.9,845.99v-27.42h10.74v6.21C607.5,834.22,603.88,841.34,596.9,845.99z
		 M568.57,838.49l8.67-8.8c-5.82-6.21-13.07-12.42-21.73-18.63l-8.8,8.54C556.02,826.33,563.39,832.54,568.57,838.49z
		 M628.72,807.45h-10.61v-12.81h10.61V807.45z M596.9,898v-5.3h54.07v4.92h11.64v-90.17h-22.25v-12.81h25.35V783h-83.44v11.64h24.19
		v12.81h-21.22V898H596.9z M572.06,807.32l8.8-8.93c-6.08-6.08-13.45-12.16-22.12-18.24l-8.8,8.41
		C559.38,795.28,566.76,801.49,572.06,807.32z M403.3,898.39c7.24-18.37,11-41.01,11.25-67.92v-16.82c5.3,11,10.09,21.6,14.49,31.82
		c-4.14,11.13-9.18,21.09-15.14,29.62l6.99,8.67c5.17-6.99,9.83-15.14,13.84-24.45c3.23,8.02,6.08,15.65,8.67,23.16l9.18-6.34
		c-3.36-9.57-7.5-19.92-12.42-31.18c4.01-12.03,7.11-25.61,9.44-40.88l-10.09-1.68c-1.55,9.83-3.36,19.27-5.69,28.07
		c-3.36-7.24-6.86-14.88-10.74-22.9l-8.54,5.43v-18.89h38.03v37.77c0,26.13,1.16,43.34,3.75,51.87c2.46,8.8,6.34,13.19,11.77,13.19
		c2.33,0,4.27-1.94,6.08-5.56c1.81-3.88,3.36-11.51,4.79-22.9l-8.54-3.88c-1.03,13.07-2.2,19.66-3.49,19.66
		c-1.03,0-1.81-3.23-2.33-9.44c-0.69-5.67-0.97-17.76-1.03-36.18l-0.01-55.79h-59.89v47.61c-0.26,24.19-3.62,44.24-9.96,60.02
		L403.3,898.39z M386.87,897.61v-62.22c2.2,3.88,4.79,8.54,7.89,14.23l6.6-9.96c-4.92-6.73-9.7-12.81-14.49-18.37v-6.6h12.55v-11.77
		h-12.55V778.6h-11.9v24.32h-15.01v11.77h14.75c-3.75,14.75-9.7,28.07-17.72,39.71l5.3,13.58c4.92-8.8,9.18-18.24,12.68-28.46v58.08
		H386.87z M270.12,853.5h-18.63v-7.76h18.63V853.5z M240.11,853.5h-18.63v-7.76h18.63V853.5z M210.22,853.5h-19.53v-7.76h19.53
		V853.5z M210.22,837.33h-19.53v-6.47h19.53V837.33z M240.11,837.33h-18.63v-6.47h18.63V837.33z M257.44,818.44l8.28-3.62
		c-1.94-4.01-4.27-7.76-7.11-11.38h10.74v12.68h11v-20.96h-45.28v21.09h11.38v-12.81h11.77l-7.76,3.23
		C252.91,810.03,255.24,813.91,257.44,818.44z M179.05,898.65c6.08-9.57,9.83-21.86,11.13-36.74h9.96v19.4
		c0,3.1-1.29,5.17-3.88,6.34l2.98,9.06c13.58-1.42,25.23-3.1,35.06-4.92l-1.94-9.31c-5.95,1.29-13.07,2.46-21.09,3.49v-8.67h21.34
		v-9.31h-21.34v-6.08h28.59v22.9c0,7.76,3.88,11.77,11.9,11.77h20.18c4.4,0,7.76-0.78,9.83-2.2c2.33-1.81,3.88-6.73,4.79-15.01
		l-10.61-3.36c-0.26,4.92-0.91,7.89-1.94,8.93c-0.91,0.78-2.33,1.16-4.14,1.16h-14.88c-2.72,0-4.01-1.16-4.01-3.49v-5.17
		c11.64-1.03,21.86-2.59,30.79-4.53l-3.36-9.06c-8.15,2.07-17.33,3.62-27.42,4.53v-6.47h30.14v-24.58h-29.62v-6.47h33.12v-10.22
		h-48.12c-1.42-2.98-2.85-5.69-4.4-8.15l-6.73,1.03v-18.37h-45.28v21.09h11.38v-12.81h10.87l-7.37,3.1
		c2.59,3.36,5.05,7.37,7.11,11.77l8.28-3.62c-1.94-3.88-4.27-7.63-7.11-11.25h11v12.68h7.37c1.03,1.29,1.94,2.85,2.98,4.53h-45.41
		v31.31c-0.26,16.43-3.36,29.24-9.18,38.55L179.05,898.65z M282.92,791.02v-9.57h-49.29v9.57H282.92z M226.52,791.02v-9.57h-49.55
		v9.57H226.52z"/>
</g>
<path class="st3" d="M712.91,822.39c11.07,10.69,15.52,26.53,11.62,41.42c-3.9,14.89-15.53,26.52-30.42,30.42
	c-14.89,3.9-30.73-0.55-41.42-11.62L311.98,541.91c-16.63-16.63-16.63-43.59,0-60.22l340.71-340.71
	c10.69-11.07,26.53-15.52,41.42-11.62c14.89,3.9,26.52,15.53,30.42,30.42c3.9,14.89-0.55,30.73-11.62,41.42l-310.6,310.6
	L712.91,822.39L712.91,822.39z"/>
<path class="st3" d="M550.5,141.21l296.27,211.95c29.07,20.8,46.32,54.28,46.32,89.95V784.9c0,61.16-49.75,110.74-111.11,110.74
	H630.48V734.56c0-66.72-54.27-120.81-121.21-120.81s-121.21,54.09-121.21,120.81v161.08H236.55c-61.36,0-111.11-49.58-111.11-110.74
	V443.12c0-35.67,17.24-69.16,46.32-89.96l296.27-211.95C492.68,123.58,525.86,123.58,550.5,141.21z"/>
<rect x="-110.88" y="-110.84" class="st20" width="1246.12" height="1246.12"/>
<rect x="128.76" y="128.8" class="st15" width="766.84" height="766.84"/>
<path class="st24" d="M895.6,816.08v51.81c-2.88,14.43-11.45,23.29-24.73,27.46H818.3c0.67-26.07-1.39-54.88,1.05-79.27
	C844.75,816.08,870.2,816.08,895.6,816.08z M749.23,895.35h-74.19c0.67-26.07-1.39-54.88,1.05-79.27h73.19L749.23,895.35z
	 M300.87,673.78c32.97-3.59,60.2,27.65,47.4,62.02c-17.73,47.64-102.47,29.72-86.61-30.48
	C266.12,688.64,278.77,676.23,300.87,673.78z M895.6,569.11v85.36c-2.4,28.8-0.34,61.97-1.01,92.45H675.04v-49.8
	c-20.61-2.4-45.68-0.34-68.01-1.01c-2.4,64.37-0.34,133.14-1.05,199.19h-40.21c-34.56-6.85-24.73-57.94-24.73-98.59V639.18
	c0-23.68-4.89-59.19,1.01-78.27c7.05-22.72,37.53-19.31,68.01-19.31h149.44v135.16h69.06c0.67-44.72-1.39-92.12,1.01-135.16
	C862.87,539.73,893.64,540.21,895.6,569.11z M194.71,610.8v218.5h221.62V607.74H195.76C194.57,607.93,194.61,609.37,194.71,610.8z
	 M457.55,895.35H153.49c-12.6-3.83-21.14-11.69-24.73-24.4V565.08c3.02-8.96,9.92-19.41,20.61-22.38
	c20.18-5.61,53.15-1.01,77.31-1.01h157.68c23.29,0,57.23-5.13,78.31,1.01c28.56,8.29,20.61,59.91,20.61,96.53v161.56
	C483.33,840.33,491.96,891.81,457.55,895.35z M708.02,262.23c72.71-13.37,71.32,100.12,0,88.43
	C662.63,343.18,661.19,270.85,708.02,262.23z M295.74,262.23c30.87-5.75,55.12,14.81,55.64,42.66c0.67,36.76-37.38,56.94-67,41.65
	C250.5,329.09,252.75,270.23,295.74,262.23z M607.03,198.19v218.5h221.62V195.13H608.04C606.84,195.32,606.94,196.76,607.03,198.19z
	 M564.76,129.08h307.17c12.51,4.6,21.09,13.04,23.68,27.46v298.78c-2.83,12.41-9.39,23.01-21.66,26.41
	c-20.03,5.56-53.34,1.01-77.31,1.01H638.95c-23.77,0-59.05,4.94-78.31-1.01c-27.27-8.39-19.6-60.87-19.6-97.53V227.67
	C541.04,185.3,531.59,135.03,564.76,129.08z M194.71,198.19v218.5h221.62V195.13H195.76C194.57,195.32,194.61,196.76,194.71,198.19z
	 M152.49,129.08h307.17c31.2,3.07,23.68,57.27,23.68,92.5v167.7c0,36.43,6.95,81.09-17.54,91.45c-15.91,6.71-58.71,2.01-79.37,2.01
	H223.56c-37.62,0-89,8.87-94.8-23.39V152.47C132.98,141.02,140.36,132.77,152.49,129.08z"/>
<rect x="9.15" y="-19.41" class="st20" width="1109.16" height="1109.16"/>
<rect x="94.47" y="65.91" class="st15" width="938.52" height="938.52"/>
<circle class="st25" cx="554.09" cy="518.26" r="213.58"/>
<path class="st25" d="M751.83,316.53l-14.66-14.66c-5.37-5.37-5.37-14.08,0-19.44l53.63-53.63c5.37-5.37,14.08-5.37,19.44,0
	l14.66,14.66c5.37,5.37,5.37,14.08,0,19.44l-53.63,53.63C765.9,321.9,757.21,321.9,751.83,316.53z M829.68,518.3v-20.73
	c0-7.59,6.16-13.75,13.75-13.75h75.85c7.59,0,13.75,6.16,13.75,13.75v20.73c0,7.59-6.16,13.75-13.75,13.75h-75.85
	C835.83,532.05,829.68,525.89,829.68,518.3z M742.05,716.01l14.66-14.66c5.37-5.37,14.08-5.37,19.44,0l53.63,53.63
	c5.37,5.37,5.37,14.08,0,19.44l-14.66,14.66c-5.37,5.37-14.08,5.37-19.44,0l-53.63-53.63C736.68,730.09,736.68,721.38,742.05,716.01
	z M540.27,793.85h20.73c7.59,0,13.75,6.16,13.75,13.75v75.85c0,7.59-6.16,13.75-13.75,13.75h-20.73c-7.59,0-13.75-6.16-13.75-13.75
	V807.6C526.53,800.01,532.69,793.85,540.27,793.85z M342.56,706.22l14.66,14.66c5.37,5.37,5.37,14.08,0,19.44l-53.63,53.63
	c-5.37,5.37-14.08,5.37-19.44,0l-14.66-14.66c-5.37-5.37-5.37-14.08,0-19.44l53.63-53.63C328.48,700.85,337.19,700.85,342.56,706.22
	z M264.72,504.45v20.73c0,7.59-6.16,13.75-13.75,13.75h-75.85c-7.59,0-13.75-6.16-13.75-13.75v-20.73c0-7.59,6.16-13.75,13.75-13.75
	h75.85C258.56,490.7,264.72,496.86,264.72,504.45z M352.35,306.74l-14.66,14.66c-5.37,5.37-14.08,5.37-19.44,0l-53.63-53.63
	c-5.37-5.37-5.37-14.08,0-19.44l14.66-14.66c5.37-5.37,14.08-5.37,19.44,0l53.63,53.63C357.72,292.67,357.72,301.37,352.35,306.74z
	 M554.12,235.79h-20.73c-7.59,0-13.75-6.16-13.75-13.75v-75.85c0-7.59,6.16-13.75,13.75-13.75h20.73c7.59,0,13.75,6.16,13.75,13.75
	v75.85C567.87,229.63,561.71,235.79,554.12,235.79z"/>
<g>
	<path class="st26" d="M537.17,273.8C409.15,81.73,153.03,194.14,153.03,403.36c0,141.57,127.93,242.49,224.05,318.55
		c100.07,79.14,128.1,96.12,160.09,128.1c31.98-31.98,58.74-50.68,160.09-128.02c97.58-74.51,224.05-178.61,224.05-320.18
		C921.31,194.14,665.19,81.73,537.17,273.8z"/>
	<polygon class="st27" points="556.17,489.06 556.17,371.87 509.29,371.87 509.29,489.06 392.1,489.06 392.1,535.94 509.29,535.94 
		509.29,653.13 556.17,653.13 556.17,535.94 673.36,535.94 673.36,489.06 	"/>
</g>
</svg>
