<?xml version="1.0" encoding="utf-8"?>
<!-- Generator: Adobe Illustrator 23.0.2, SVG Export Plug-In . SVG Version: 6.00 Build 0)  -->
<svg version="1.1" id="图层_1" xmlns="http://www.w3.org/2000/svg" xmlns:xlink="http://www.w3.org/1999/xlink" x="0px" y="0px"
	 viewBox="0 0 1024 1024" style="enable-background:new 0 0 1024 1024;" xml:space="preserve">
<style type="text/css">
	.st0{display:none;}
	.st1{display:inline;fill-rule:evenodd;clip-rule:evenodd;fill:#F0F0F0;}
	.st2{display:inline;fill-rule:evenodd;clip-rule:evenodd;fill:#FFFFFF;}
	.st3{display:inline;fill:#E0E0E0;}
	.st4{display:inline;fill-rule:evenodd;clip-rule:evenodd;fill:#CCCCCC;}
	.st5{fill:#163070;}
</style>
<g class="st0">
	<circle class="st1" cx="510.37" cy="513.39" r="382.35"/>
	<circle class="st2" cx="512" cy="515.01" r="136.67"/>
	<path class="st3" d="M512,381.6c-73.68,0-133.42,59.73-133.42,133.42c0,73.68,59.73,133.42,133.42,133.42
		c73.68,0,133.42-59.73,133.42-133.42C645.41,441.33,585.68,381.6,512,381.6z M512,378.34c75.48,0,136.67,61.19,136.67,136.67
		c0,75.48-61.19,136.67-136.67,136.67s-136.67-61.19-136.67-136.67C375.33,439.53,436.52,378.34,512,378.34z"/>
	<path class="st4" d="M512,244.93c5.39,0,9.76,4.37,9.76,9.76s-4.37,9.76-9.76,9.76c-5.39,0-9.76-4.37-9.76-9.76
		S506.61,244.93,512,244.93z M251.68,505.25c5.39,0,9.76,4.37,9.76,9.76s-4.37,9.76-9.76,9.76c-5.39,0-9.76-4.37-9.76-9.76
		S246.29,505.25,251.68,505.25z M772.32,505.25c5.39,0,9.76,4.37,9.76,9.76s-4.37,9.76-9.76,9.76c-5.39,0-9.76-4.37-9.76-9.76
		S766.93,505.25,772.32,505.25z M512,762.32c5.39,0,9.76,4.37,9.76,9.76s-4.37,9.76-9.76,9.76c-5.39,0-9.76-4.37-9.76-9.76
		S506.61,762.32,512,762.32z"/>
</g>
<path class="st5" d="M867.23,491.94c13.42,0,24.31,10.88,24.31,24.31c0,13.42-10.88,24.31-24.31,24.31H656.57
	c-13.42,0-24.31-10.88-24.31-24.31c0-13.42,10.88-24.31,24.31-24.31H867.23z M491.75,297.81l-0.69,466.54L345.31,649.6
	c-8.27-6.54-18.61-9.99-28.94-9.99H193.01l0.69-203.65l120.94-0.34c11.37,0,22.05-4.15,30.67-11.37L491.75,297.81z M506.91,232.68
	c-6.89,0-14.13,2.41-19.99,7.24L314.64,388.77H193.7c-26.19,0-47.21,21.02-47.21,46.87l-0.34,203.98c0,25.84,21.37,47.2,47.55,47.2
	h122.67l169.87,133.7c6.2,5.17,13.1,7.23,19.99,7.23c16.53,0,31.7-12.75,31.7-31.35l0.69-532.36
	C538.96,245.42,523.46,232.68,506.91,232.68z"/>
</svg>
