<?xml version="1.0" encoding="utf-8"?>
<!-- Generator: Adobe Illustrator 23.0.2, SVG Export Plug-In . SVG Version: 6.00 Build 0)  -->
<svg version="1.1" id="图层_1" xmlns="http://www.w3.org/2000/svg" xmlns:xlink="http://www.w3.org/1999/xlink" x="0px" y="0px"
	 viewBox="0 0 1024 1024" style="enable-background:new 0 0 1024 1024;" xml:space="preserve">
<style type="text/css">
	.st0{display:none;fill:#A3A3A3;}
	.st1{display:none;fill:#163070;}
	.st2{fill:#A3A3A3;}
</style>
<path class="st0" d="M523.24,354.23c6.21,0,11.65,5.44,11.65,11.65v40.39l29.51-17.09c3.11-2.33,6.99-0.78,9.32,2.33
	c2.33,3.11,0.78,6.99-2.33,9.32l-36.51,20.97v82.33l72.23-41.17v-41.94c0-3.88,3.11-6.99,6.99-6.99c3.88,0,6.99,3.11,6.99,6.99
	v34.17L655.28,435c6.21-3.11,13.2-0.78,16.31,4.66c3.11,5.44,0.78,13.2-3.88,16.31l-34.17,19.42l29.51,17.09
	c3.11,1.55,4.66,6.21,2.33,9.32c-1.55,2.33-3.88,3.88-6.21,3.88c-1.55,0-3.11,0-3.88-0.78l-36.5-20.97l-72.23,41.17l73.79,41.17
	l36.51-20.97c3.11-2.33,6.99-0.78,9.32,2.33c2.33,3.11,0.78,6.99-2.33,9.32l-29.51,17.09l34.17,19.42
	c6.21,3.11,7.77,10.87,4.66,16.31c-2.33,3.88-6.21,6.21-10.1,6.21c-2.33,0-4.66-0.78-6.21-1.55L622.66,595v33.4
	c0,3.88-3.11,6.99-6.99,6.99s-6.99-3.11-6.99-6.99v-41.94l-72.23-41.17v83.11l36.5,20.97c3.11,1.55,4.66,6.21,2.33,9.32
	c-1.55,2.33-3.88,3.88-6.21,3.88c-1.55,0-3.11,0-3.88-0.78l-29.51-17.09v39.61c0,6.21-5.44,11.65-11.65,11.65
	s-11.65-5.44-11.65-11.65v-39.61l-29.51,17.09c-1.55,0.78-2.33,0.78-3.88,0.78c-2.33,0-4.66-1.55-6.21-3.88
	c-2.33-3.11-0.78-6.99,2.33-9.32l36.51-20.19v-83.11l-72.23,41.17v41.94c0,3.88-3.11,6.99-6.99,6.99c-3.88,0-6.99-3.11-6.99-6.99
	V595l-34.17,19.42c-2.33,0.78-3.88,1.55-6.21,1.55c-3.88,0-7.77-2.33-10.1-6.21c-3.11-6.21-0.78-13.2,4.66-16.31l34.17-19.42
	l-29.51-17.09c-3.11-1.55-4.66-6.21-2.33-9.32c1.55-3.11,6.21-4.66,9.32-2.33l36.5,20.97l72.23-41.17l-71.46-41.17l-36.5,20.97
	c-1.55,0.78-2.33,0.78-3.88,0.78c-2.33,0-4.66-1.55-6.21-3.88c-2.33-3.11-0.78-7.77,2.33-9.32l29.51-17.09l-34.17-19.42
	c-6.21-3.11-7.77-10.87-4.66-16.31c3.88-5.44,10.87-7.77,16.31-4.66l34.17,20.19v-34.17c0-3.88,3.11-6.99,6.99-6.99
	c3.88,0,6.99,3.11,6.99,6.99v41.94l72.23,41.17v-83.11l-36.51-20.97c-3.11-1.55-4.66-6.21-2.33-9.32c1.55-3.11,6.21-4.66,9.32-2.33
	l29.51,17.09v-39.61C511.59,359.66,517.03,354.23,523.24,354.23z M883.93,414.91c54.96,205.1-66.76,415.92-271.86,470.87
	c-205.1,54.96-415.92-66.76-470.87-271.86c-32.06-119.63-4.59-245.05,71.32-339.94c3.68-4.61,10.41-5.35,15.01-1.67
	c4.61,3.68,5.35,10.41,1.67,15.01c-71.72,89.64-97.65,208.06-67.37,321.06c51.9,193.71,251.01,308.66,444.71,256.76
	S915.2,614.15,863.3,420.44c-51.9-193.71-251.01-308.66-444.71-256.76c-5.7,1.53-11.55-1.85-13.08-7.55
	c-1.53-5.7,1.85-11.55,7.55-13.08C618.16,88.1,828.97,209.81,883.93,414.91z"/>
<path class="st1" d="M521.87,341.83c-21.9,24.31-109.49,122.01-120.13,211.94c0.26,6.41,1.14,42.89,34.71,43.14
	c18.64,0,36.56-10.95,36.37-35.97c0,0,0.09-2.33,0.09-3.59c0-5.94,5.39-10.76,11.33-10.76c5.94,0,10.76,4.82,10.76,10.76l0,3.59
	c1.14,9.75-1.12,35.97,25.4,35.97c33.16,0,30-24.3,31.99-35.97l0-3.59c0-5.94,4.82-10.76,10.76-10.76c5.94,0,10.76,4.82,10.76,10.76
	l0,3.59c0.29,6.99,5.13,35.97,29.68,35.97c46.15,2.97,42.07-43.14,42.07-43.14C636.69,463.24,544.24,365.79,521.87,341.83z
	 M521.71,324.19c2.12,0.03,3.75,0.74,5.1,2.1c5.43,5.47,136.76,135.58,133.2,248.89l0,0.11c0,74.76-64.03,136.31-138.24,136.31
	c-74.2,0-134.57-60.82-134.57-135.57c0-6.51,0.59-13.44,1.79-21.18c12.68-107.16,122.96-223.56,127.65-228.46
	C517.97,325,519.8,324.21,521.71,324.19z M883.64,407.71c54.85,204.7-66.63,415.11-271.33,469.96
	c-204.7,54.85-415.11-66.63-469.96-271.33c-31.99-119.4-4.59-244.57,71.18-339.28c3.68-4.6,10.39-5.34,14.98-1.66
	c4.6,3.68,5.34,10.39,1.66,14.98c-71.58,89.47-97.46,207.66-67.24,320.44c51.8,193.33,250.52,308.06,443.85,256.26
	c193.33-51.8,308.06-250.52,256.26-443.85c-51.8-193.33-250.52-308.06-443.85-256.26c-5.69,1.52-11.53-1.85-13.05-7.54
	c-1.52-5.69,1.85-11.53,7.54-13.05C618.38,81.53,828.79,203.01,883.64,407.71z"/>
<path class="st1" d="M411.48,385.46c11.26,19.61,32.84,56.98,44.19,76.54c14.07-14.8,16.71-37.1,6.5-54.78
	C451.96,389.54,431.33,380.68,411.48,385.46z M484.9,394.1c19.94,34.53,8.06,78.84-26.47,98.78c-1.99,1.15-4.25,1.76-6.55,1.76
	c-2.3,0-4.57-0.6-6.56-1.76c-3.02-1.74-4.31-3.94-5.45-5.88c-0.46-0.77-1.11-1.89-1.94-3.32c-1.64-2.81-3.97-6.82-6.76-11.63
	c-5.38-9.29-12.61-21.78-20.35-35.18c-7.74-13.4-14.95-25.91-20.3-35.21c-2.77-4.82-5.08-8.84-6.7-11.67
	c-0.82-1.44-1.46-2.56-1.9-3.34c-1.11-1.96-2.36-4.17-2.36-7.65c0-4.69,2.5-9.02,6.56-11.37
	C420.65,347.69,464.96,359.56,484.9,394.1z M489.27,493.94c14.49,0,26.24,11.75,26.24,26.24c0,14.49-11.75,26.24-26.24,26.24
	s-26.24-11.75-26.24-26.24C463.03,505.68,474.78,493.94,489.27,493.94z M556.45,520.15c5.78,19.59,23.77,33.03,44.19,33.03
	c20.42,0,38.41-13.44,44.19-33.03l-14.12-0.01C607.2,520.12,574.94,520.12,556.45,520.15z M641.36,493.94l6.2,0.01
	c2.85,0.01,5.3,0.02,7.24,0.03l3.82,0.02h1.12c7.26,0,13.16,5.86,13.21,13.12c-0.01,39.87-32.45,72.31-72.32,72.31
	c-39.88,0-72.31-32.44-72.31-72.31c0.05-7.26,5.95-13.12,13.21-13.12h1.12l3.83-0.02c2.59,0,6.08-0.02,10.22-0.03l13.28-0.01
	c9.04-0.01,19.58-0.02,30.66-0.02l12.98,0C624.12,493.91,633.69,493.92,641.36,493.94z M444.95,577.06c-4.05,0-8.08,0.54-11.99,1.59
	c-15.7,4.22-28.02,16.39-32.42,32.03c-4.4,15.65-0.25,32.45,10.95,44.24c11.34-19.56,32.94-56.96,44.21-76.56
	C452.18,577.5,448.57,577.07,444.95,577.06z M481.04,560.52c4.06,2.34,6.56,6.67,6.56,11.35c0,3.49-1.25,5.71-2.36,7.67
	c-0.44,0.78-1.08,1.91-1.9,3.34c-1.62,2.83-3.92,6.85-6.7,11.67c-4.59,7.98-10.54,18.3-17.02,29.53l-3.28,5.68
	c-7.74,13.4-14.96,25.9-20.35,35.18c-2.79,4.81-5.12,8.82-6.76,11.63c-0.82,1.43-1.49,2.55-1.94,3.32
	c-1.14,1.94-2.44,4.13-5.45,5.87c-1.99,1.15-4.25,1.76-6.55,1.76c-2.3,0-4.57-0.61-6.56-1.76c-34.54-19.99-46.36-64.18-26.41-98.74
	C402.28,552.47,446.46,540.61,481.04,560.52z M882.99,412.69c54.89,204.85-66.68,415.4-271.52,470.29
	c-204.85,54.89-415.4-66.68-470.29-271.52c-32.02-119.48-4.59-244.74,71.23-339.52c3.68-4.6,10.39-5.35,14.99-1.67
	c4.6,3.68,5.35,10.39,1.67,14.99c-71.63,89.53-97.53,207.81-67.28,320.67c51.84,193.47,250.7,308.28,444.16,256.44
	c193.47-51.84,308.28-250.7,256.44-444.16c-51.84-193.47-250.7-308.28-444.16-256.44c-5.69,1.52-11.54-1.85-13.06-7.54
	c-1.52-5.69,1.85-11.54,7.54-13.06C617.55,86.28,828.11,207.85,882.99,412.69z"/>
<path class="st2" d="M500.92,382.43c31.35,0,56.8,25.45,56.8,56.8s-25.45,56.8-56.8,56.8H364.6V473.3h136.32
	c18.74,0,34.08-15.34,34.08-34.08c0-18.74-15.34-34.08-34.08-34.08c-18.74,0-34.08,15.34-34.08,34.08h-22.72
	C444.12,407.87,469.57,382.43,500.92,382.43z M625.88,439.22c31.35,0,56.8,25.45,56.8,56.8s-25.45,56.8-56.8,56.8H364.6V530.1
	h261.27c18.74,0,34.08-15.34,34.08-34.08c0-18.74-15.34-34.08-34.08-34.08c-18.74,0-34.08,15.34-34.08,34.08h-22.72
	C569.08,464.67,594.52,439.22,625.88,439.22z M671.31,586.9c4.54,0,8.75,2.73,10.56,6.93c1.7,4.2,0.8,9.09-2.5,12.38l-45.44,45.44
	l-16.02-16.02l26.01-26.01H591.8v34.08h-22.72v-34.08h-45.44v34.08h-22.72v-34.08h-45.44v34.08h-22.72v-34.08H364.6V586.9H671.31z
	 M883.31,408.86c54.8,204.53-66.57,414.75-271.1,469.55c-204.53,54.8-414.75-66.57-469.55-271.1
	c-31.97-119.3-4.58-244.36,71.12-338.98c3.67-4.59,10.38-5.34,14.97-1.66c4.59,3.67,5.34,10.38,1.66,14.97
	c-71.51,89.39-97.37,207.48-67.18,320.17C214.99,794.97,413.54,909.6,606.7,857.84c193.16-51.76,307.79-250.31,256.04-443.47
	c-51.76-193.16-250.31-307.79-443.47-256.04c-5.68,1.52-11.52-1.85-13.04-7.53c-1.52-5.68,1.85-11.52,7.53-13.04
	C618.29,82.96,828.51,204.34,883.31,408.86z"/>
</svg>
